<svg width="24" height="24" viewBox="0 0 24 24" fill="none" xmlns="http://www.w3.org/2000/svg">
<path d="M12 3C16.9706 3 21 7.02944 21 12C21 16.9706 16.9706 21 12 21C7.02944 21 3 16.9706 3 12C3 7.02944 7.02944 3 12 3Z" stroke="white" stroke-width="2" stroke-linecap="round" stroke-linejoin="round"/>
<path d="M16.0459 11C16.5725 11 16.9998 11.4479 17 12C17 12.5523 16.5726 13 16.0459 13H7.95312C7.42642 13 7 12.5523 7 12C7.00019 11.4479 7.42654 11 7.95312 11H16.0459Z" fill="white"/>
<path d="M13 16.0468C13 16.5734 12.5521 16.9998 12 17C11.4477 17 11 16.5736 11 16.0468L11 7.95322C11 7.42646 11.4477 7 12 7C12.5521 7.00019 13 7.42657 13 7.95322L13 16.0468Z" fill="white"/>
</svg>
