<svg width="24" height="24" viewBox="0 0 24 24" fill="none" xmlns="http://www.w3.org/2000/svg">
<path d="M13.4783 3H9.78232C9.45342 3 9.14307 3.15232 8.94186 3.41248L7.49293 5.28593C7.29171 5.5461 6.98136 5.69841 6.65246 5.69841H4.0625C3.4757 5.69841 3 6.17411 3 6.76091V17.9375C3 18.5243 3.4757 19 4.0625 19H19.9375C20.5243 19 21 18.5243 21 17.9375V8.93651" stroke="white" stroke-width="2" stroke-linecap="round"/>
<circle cx="12" cy="12" r="3" stroke="white" stroke-width="2"/>
<path d="M18.3531 2.23951C18.2207 1.92016 17.7794 1.92017 17.647 2.23951L17.4573 2.69801C17.1334 3.48011 16.5288 4.10464 15.7691 4.44263L15.2307 4.68214C14.9231 4.81925 14.9231 5.26717 15.2307 5.40431L15.8006 5.65772C16.5414 5.98718 17.135 6.5896 17.4646 7.34596L17.6499 7.77003C17.7852 8.08064 18.2148 8.08064 18.3501 7.77003L18.5355 7.34596C18.8651 6.58961 19.4588 5.98718 20.1995 5.65772L20.7686 5.40431C21.0767 5.2673 21.0767 4.81915 20.7686 4.68214L20.231 4.44263C19.4712 4.10464 18.8667 3.48011 18.5427 2.69801L18.3531 2.23951Z" fill="white"/>
</svg>
