<svg width="24" height="24" viewBox="0 0 24 24" fill="none" xmlns="http://www.w3.org/2000/svg">
<path d="M11.6111 6H6.66683C5.73341 6 5.26635 6 4.90983 6.18037C4.59623 6.33903 4.34144 6.59202 4.18166 6.90341C4 7.25741 4 7.72117 4 8.648V18.1397C4 19.0215 4 19.4623 4.18205 19.6888C4.34037 19.8857 4.58036 20.0003 4.83415 20C5.12596 19.9997 5.47287 19.7241 6.16634 19.1733L7.43631 18.1645L7.44565 18.1574C7.71041 17.947 7.84401 17.8409 7.99307 17.7653C8.1268 17.6975 8.2694 17.6481 8.4165 17.6181C8.58231 17.5843 8.75503 17.5843 9.10172 17.5843H16.3359C17.2675 17.5843 17.7338 17.5843 18.09 17.4041C18.4036 17.2454 18.6587 16.992 18.8185 16.6806C19 16.327 19 15.8644 19 14.9394V13.3889" stroke="white" stroke-width="2" stroke-linecap="round" stroke-linejoin="round"/>
<path d="M15.3336 7H20.3336M17.8336 9.5V4.5" stroke="white" stroke-width="2" stroke-linecap="round"/>
</svg>
