<svg width="24" height="24" viewBox="0 0 24 24" fill="none" xmlns="http://www.w3.org/2000/svg">
<path d="M12 2C17.5228 2 22 6.47715 22 12C22 17.5228 17.5228 22 12 22C6.47715 22 2 17.5228 2 12C2 6.47715 6.47715 2 12 2ZM11.9814 7C11.7415 7.00127 11.5052 7.08968 11.3262 7.26855L8.43164 10.1631C8.05942 10.5356 8.07448 11.1535 8.46484 11.5439C8.85531 11.9339 9.47335 11.9492 9.8457 11.5771L11 10.4229V15.8838C11.0001 16.4104 11.448 16.8367 12 16.8369C12.5518 16.8365 12.9999 16.4102 13 15.8838V10.4229L14.1553 11.5771C14.5277 11.949 15.1458 11.934 15.5361 11.5439C15.9261 11.1536 15.9412 10.5355 15.5693 10.1631L12.6748 7.26855C12.4954 7.08921 12.258 7.00096 12.0176 7H11.9814Z" fill="#C88D4B"/>
</svg>
