<svg width="24" height="24" viewBox="0 0 24 24" fill="none" xmlns="http://www.w3.org/2000/svg">
<path d="M13.4786 20.4295L18.5226 17.5016C19.061 17.1891 19.3297 17.0328 19.5255 16.8141C19.6988 16.6207 19.8298 16.3928 19.9098 16.1452C20 15.8661 20 15.5541 20 14.932V9.0676C20 8.44541 20 8.1335 19.9098 7.85435C19.8298 7.60678 19.6988 7.37874 19.5255 7.18529C19.3306 6.9676 19.0625 6.81197 18.5287 6.50211L13.4777 3.57016C12.9392 3.2576 12.6705 3.10164 12.3843 3.04047C12.131 2.98635 11.8692 2.98635 11.616 3.04047C11.3297 3.10164 11.0602 3.2576 10.5217 3.57016L5.47673 6.49861L5.47672 6.49862C4.9389 6.81081 4.6702 6.96678 4.47452 7.18529C4.30127 7.37874 4.17043 7.60678 4.09043 7.85435C4 8.13416 4 8.44688 4 9.072V14.9278C4 15.5529 4 15.8654 4.09043 16.1452C4.17043 16.3928 4.30127 16.6207 4.47452 16.8141C4.67032 17.0328 4.93922 17.1891 5.47767 17.5016L10.5217 20.4295C11.0601 20.7421 11.3297 20.8981 11.616 20.9593C11.8692 21.0134 12.131 21.0134 12.3843 20.9593C12.6705 20.8981 12.9401 20.7421 13.4786 20.4295Z" stroke="white" stroke-opacity="0.85" stroke-width="1.33" stroke-linecap="round" stroke-linejoin="round"/>
<path d="M9.05615 11.9999C9.05615 13.6256 10.3741 14.9436 11.9999 14.9436C13.6256 14.9436 14.9436 13.6256 14.9436 11.9999C14.9436 10.3741 13.6256 9.05615 11.9999 9.05615C10.3741 9.05615 9.05615 10.3741 9.05615 11.9999Z" stroke="white" stroke-opacity="0.85" stroke-width="1.33" stroke-linecap="round" stroke-linejoin="round"/>
</svg>
