<svg width="24" height="24" viewBox="0 0 24 24" fill="none" xmlns="http://www.w3.org/2000/svg">
<path d="M9.25 4.00001C9.80227 4.00001 10.25 4.44774 10.25 5.00001V19C10.25 19.5523 9.80228 20 9.25 20C8.69772 20 8.25 19.5523 8.25 19V5.00001C8.25002 4.44774 8.69773 4.00001 9.25 4.00001ZM13.25 10C13.8023 10 14.25 10.4477 14.25 11V17C14.25 17.5523 13.8023 18 13.25 18C12.6977 18 12.25 17.5523 12.25 17V11C12.25 10.4477 12.6977 10 13.25 10ZM17.25 13C17.8023 13 18.25 13.4477 18.25 14V15.5C18.25 16.0523 17.8023 16.5 17.25 16.5C16.6977 16.5 16.25 16.0523 16.25 15.5V14C16.25 13.4477 16.6977 13 17.25 13ZM5.25 9.00001C5.80227 9.00001 6.24998 9.44774 6.25 10V14C6.25 14.5523 5.80228 15 5.25 15C4.69772 15 4.25 14.5523 4.25 14V10C4.25002 9.44774 4.69773 9.00001 5.25 9.00001ZM16.8975 4.23926C17.03 3.92036 17.4712 3.92013 17.6035 4.23926L17.793 4.69825C18.1169 5.48023 18.7217 6.10443 19.4814 6.44239L20.0186 6.68262C20.3265 6.8197 20.3266 7.26731 20.0186 7.4043L19.4492 7.65821C18.7087 7.98769 18.1147 8.58955 17.7852 9.34571L17.6006 9.77051C17.4652 10.0807 17.0359 10.0805 16.9004 9.77051L16.7148 9.34571C16.3853 8.58954 15.7914 7.98768 15.0508 7.65821L14.4805 7.4043C14.1732 7.2671 14.1733 6.8199 14.4805 6.68262L15.0195 6.44239C15.779 6.10438 16.3831 5.48005 16.707 4.69825L16.8975 4.23926Z" fill="white" style="mix-blend-mode:overlay"/>
<path d="M9.25 4.00001C9.80227 4.00001 10.25 4.44774 10.25 5.00001V19C10.25 19.5523 9.80228 20 9.25 20C8.69772 20 8.25 19.5523 8.25 19V5.00001C8.25002 4.44774 8.69773 4.00001 9.25 4.00001ZM13.25 10C13.8023 10 14.25 10.4477 14.25 11V17C14.25 17.5523 13.8023 18 13.25 18C12.6977 18 12.25 17.5523 12.25 17V11C12.25 10.4477 12.6977 10 13.25 10ZM17.25 13C17.8023 13 18.25 13.4477 18.25 14V15.5C18.25 16.0523 17.8023 16.5 17.25 16.5C16.6977 16.5 16.25 16.0523 16.25 15.5V14C16.25 13.4477 16.6977 13 17.25 13ZM5.25 9.00001C5.80227 9.00001 6.24998 9.44774 6.25 10V14C6.25 14.5523 5.80228 15 5.25 15C4.69772 15 4.25 14.5523 4.25 14V10C4.25002 9.44774 4.69773 9.00001 5.25 9.00001ZM16.8975 4.23926C17.03 3.92036 17.4712 3.92013 17.6035 4.23926L17.793 4.69825C18.1169 5.48023 18.7217 6.10443 19.4814 6.44239L20.0186 6.68262C20.3265 6.8197 20.3266 7.26731 20.0186 7.4043L19.4492 7.65821C18.7087 7.98769 18.1147 8.58955 17.7852 9.34571L17.6006 9.77051C17.4652 10.0807 17.0359 10.0805 16.9004 9.77051L16.7148 9.34571C16.3853 8.58954 15.7914 7.98768 15.0508 7.65821L14.4805 7.4043C14.1732 7.2671 14.1733 6.8199 14.4805 6.68262L15.0195 6.44239C15.779 6.10438 16.3831 5.48005 16.707 4.69825L16.8975 4.23926Z" fill="white" style="mix-blend-mode:overlay"/>
<path d="M9.25 4.00001C9.80227 4.00001 10.25 4.44774 10.25 5.00001V19C10.25 19.5523 9.80228 20 9.25 20C8.69772 20 8.25 19.5523 8.25 19V5.00001C8.25002 4.44774 8.69773 4.00001 9.25 4.00001ZM13.25 10C13.8023 10 14.25 10.4477 14.25 11V17C14.25 17.5523 13.8023 18 13.25 18C12.6977 18 12.25 17.5523 12.25 17V11C12.25 10.4477 12.6977 10 13.25 10ZM17.25 13C17.8023 13 18.25 13.4477 18.25 14V15.5C18.25 16.0523 17.8023 16.5 17.25 16.5C16.6977 16.5 16.25 16.0523 16.25 15.5V14C16.25 13.4477 16.6977 13 17.25 13ZM5.25 9.00001C5.80227 9.00001 6.24998 9.44774 6.25 10V14C6.25 14.5523 5.80228 15 5.25 15C4.69772 15 4.25 14.5523 4.25 14V10C4.25002 9.44774 4.69773 9.00001 5.25 9.00001ZM16.8975 4.23926C17.03 3.92036 17.4712 3.92013 17.6035 4.23926L17.793 4.69825C18.1169 5.48023 18.7217 6.10443 19.4814 6.44239L20.0186 6.68262C20.3265 6.8197 20.3266 7.26731 20.0186 7.4043L19.4492 7.65821C18.7087 7.98769 18.1147 8.58955 17.7852 9.34571L17.6006 9.77051C17.4652 10.0807 17.0359 10.0805 16.9004 9.77051L16.7148 9.34571C16.3853 8.58954 15.7914 7.98768 15.0508 7.65821L14.4805 7.4043C14.1732 7.2671 14.1733 6.8199 14.4805 6.68262L15.0195 6.44239C15.779 6.10438 16.3831 5.48005 16.707 4.69825L16.8975 4.23926Z" fill="white" style="mix-blend-mode:overlay"/>
</svg>
