<svg width="24" height="24" viewBox="0 0 24 24" fill="none" xmlns="http://www.w3.org/2000/svg">
<path d="M20.0407 12C20.0407 11.0437 19.8518 10.0969 19.4859 9.21344C19.1199 8.32992 18.5837 7.52689 17.9075 6.85068C17.5251 6.46818 17.5251 5.84806 17.9075 5.46555C18.29 5.08306 18.9101 5.08314 19.2926 5.46555C20.1508 6.32369 20.8323 7.34226 21.2967 8.46348C21.7611 9.58463 21.9997 10.7864 21.9998 12C21.9998 13.2134 21.761 14.4153 21.2967 15.5364C20.8323 16.6576 20.1508 17.6762 19.2926 18.5344C18.9101 18.9169 18.29 18.9169 17.9075 18.5344C17.5253 18.1518 17.5251 17.5317 17.9075 17.1492C18.5837 16.473 19.1199 15.67 19.4859 14.7865C19.8518 13.903 20.0407 12.9562 20.0407 12ZM15.451 12C15.451 11.2188 15.1975 10.4582 14.7288 9.8333C14.4043 9.40053 14.4922 8.78707 14.9249 8.46252C15.3577 8.13807 15.9711 8.22589 16.2957 8.65862C17.0186 9.62264 17.4101 10.795 17.4101 12C17.4101 13.205 17.0187 14.3773 16.2957 15.3413C15.9711 15.774 15.3577 15.8618 14.9249 15.5374C14.4921 15.2128 14.4042 14.5984 14.7288 14.1657C15.1973 13.5408 15.451 12.781 15.451 12Z" fill="#C88D4B"/>
<path d="M10.4266 4.35059C10.7394 4.02846 11.2849 4.24932 11.285 4.69824V19.3018C11.2849 19.7507 10.7394 19.9715 10.4266 19.6494L6.83484 15.9502L6.53992 15.6475H3.95886C3.42922 15.6474 2.99988 15.2172 2.99988 14.6875V9.31152C3.00011 8.78207 3.42937 8.35259 3.95886 8.35254H6.53992L6.83484 8.0498L10.4266 4.35059Z" stroke="#C88D4B" stroke-width="2"/>
</svg>
