<svg width="24" height="24" viewBox="0 0 24 24" fill="none" xmlns="http://www.w3.org/2000/svg">
<path d="M20.2929 8.29387C20.6834 7.90335 21.3164 7.90335 21.707 8.29387C22.0975 8.68439 22.0975 9.31741 21.707 9.70793L19.414 12.0009L21.707 14.2939C22.0975 14.6844 22.0975 15.3174 21.707 15.7079C21.3164 16.0985 20.6834 16.0985 20.2929 15.7079L17.9999 13.415L15.707 15.7079C15.3164 16.0985 14.6834 16.0985 14.2929 15.7079C13.9024 15.3174 13.9024 14.6844 14.2929 14.2939L16.5859 12.0009L14.2929 9.70793C13.9024 9.31741 13.9024 8.68439 14.2929 8.29387C14.6834 7.90335 15.3164 7.90335 15.707 8.29387L17.9999 10.5868L20.2929 8.29387Z" fill="white"/>
<path d="M10.4268 4.35059C10.7395 4.02846 11.285 4.24932 11.2852 4.69824V19.3018C11.285 19.7507 10.7395 19.9715 10.4268 19.6494L6.83496 15.9502L6.54004 15.6475H3.95898C3.42934 15.6474 3 15.2172 3 14.6875V9.31152C3.00024 8.78207 3.42949 8.35259 3.95898 8.35254H6.54004L6.83496 8.0498L10.4268 4.35059Z" stroke="white" stroke-width="2"/>
</svg>
