<?xml version="1.0" encoding="UTF-8"?>
<svg xmlns="http://www.w3.org/2000/svg" width="1080" height="2400" viewBox="0 0 1080 2400">
  <defs>
    <linearGradient id="bg" x1="0" y1="0" x2="1" y2="1">
      <stop offset="0" stop-color="#071f1e"/>
      <stop offset=".46" stop-color="#103f36"/>
      <stop offset="1" stop-color="#082321"/>
    </linearGradient>
    <radialGradient id="halo" cx="50%" cy="30%" r="58%">
      <stop offset="0" stop-color="#2f6d5a" stop-opacity=".48"/>
      <stop offset=".42" stop-color="#173d35" stop-opacity=".16"/>
      <stop offset="1" stop-color="#071f1d" stop-opacity="0"/>
    </radialGradient>
    <linearGradient id="goldStroke" x1="0" y1="0" x2="1" y2="1">
      <stop offset="0" stop-color="#8e672c"/>
      <stop offset=".18" stop-color="#f0d087"/>
      <stop offset=".45" stop-color="#b68b43"/>
      <stop offset=".68" stop-color="#fff0b6"/>
      <stop offset="1" stop-color="#8a6229"/>
    </linearGradient>
    <linearGradient id="triGold" x1="0" y1="0" x2="1" y2="1">
      <stop offset="0" stop-color="#7a5729"/>
      <stop offset=".44" stop-color="#e7c06d"/>
      <stop offset="1" stop-color="#fff0b5"/>
    </linearGradient>
    <radialGradient id="centerVoid" cx="52%" cy="42%" r="62%">
      <stop offset="0" stop-color="#214d42"/>
      <stop offset=".52" stop-color="#143932"/>
      <stop offset="1" stop-color="#092421"/>
    </radialGradient>
    <filter id="leather">
      <feTurbulence type="fractalNoise" baseFrequency="1.06" numOctaves="5" seed="3221" result="noise"/>
      <feColorMatrix type="matrix" values="0.20 0 0 0 0  0 0.28 0 0 0  0 0 0.23 0 0  0 0 0 .18 0" result="grain"/>
      <feBlend in="SourceGraphic" in2="grain" mode="soft-light"/>
    </filter>
    <filter id="embossTeal" x="-20%" y="-20%" width="140%" height="140%">
      <feDropShadow dx="0" dy="1.4" stdDeviation=".8" flood-color="#031312" flood-opacity=".42"/>
      <feDropShadow dx="0" dy="-0.7" stdDeviation=".45" flood-color="#d5ffff" flood-opacity=".11"/>
    </filter>
    <filter id="goldPress" x="-30%" y="-30%" width="160%" height="160%">
      <feDropShadow dx="0" dy="8" stdDeviation="8" flood-color="#02110f" flood-opacity=".38"/>
      <feDropShadow dx="0" dy="-2" stdDeviation="1.2" flood-color="#fff1bc" flood-opacity=".28"/>
    </filter>
    <filter id="starGlow">
      <feGaussianBlur stdDeviation=".35" result="blur"/>
      <feMerge><feMergeNode in="blur"/><feMergeNode in="SourceGraphic"/></feMerge>
    </filter>
    <pattern id="brushed" width="13" height="13" patternUnits="userSpaceOnUse" patternTransform="rotate(32)">
      <rect width="13" height="13" fill="transparent"/>
      <path d="M0 2 H13 M0 7 H13 M0 11 H13" stroke="#fff2b8" stroke-opacity=".08" stroke-width=".9"/>
    </pattern>
  </defs>
  <rect width="1080" height="2400" fill="url(#bg)" filter="url(#leather)"/>
  <rect width="1080" height="2400" fill="url(#halo)"/>
  <rect width="1080" height="2400" fill="url(#brushed)" opacity=".18"/>
  <g filter="url(#starGlow)"><circle cx="1047.0" cy="20.4" r="0.78" fill="#f6fbff" opacity="0.44"/>
<circle cx="474.8" cy="1576.8" r="1.64" fill="#f6fbff" opacity="0.25"/>
<circle cx="24.2" cy="1123.7" r="2.58" fill="#f6fbff" opacity="0.45"/>
<circle cx="103.0" cy="1109.7" r="0.78" fill="#f6fbff" opacity="0.49"/>
<circle cx="68.4" cy="1292.6" r="0.87" fill="#f6fbff" opacity="0.50"/>
<circle cx="578.1" cy="2323.7" r="1.91" fill="#f6fbff" opacity="0.50"/>
<circle cx="151.7" cy="2217.4" r="1.21" fill="#f6fbff" opacity="0.23"/>
<circle cx="714.1" cy="220.0" r="1.27" fill="#f6fbff" opacity="0.33"/>
<circle cx="991.0" cy="205.8" r="0.97" fill="#f6fbff" opacity="0.55"/>
<circle cx="377.3" cy="618.8" r="1.86" fill="#f6fbff" opacity="0.26"/>
<circle cx="473.4" cy="1922.2" r="1.00" fill="#f6fbff" opacity="0.38"/>
<circle cx="1045.6" cy="127.5" r="1.12" fill="#f6fbff" opacity="0.31"/>
<circle cx="921.3" cy="10.3" r="2.30" fill="#f6fbff" opacity="0.53"/>
<circle cx="389.4" cy="77.5" r="1.61" fill="#f6fbff" opacity="0.43"/>
<circle cx="40.3" cy="1033.6" r="2.67" fill="#f6fbff" opacity="0.26"/>
<circle cx="442.3" cy="1110.3" r="2.60" fill="#f6fbff" opacity="0.18"/>
<circle cx="73.2" cy="2181.7" r="1.72" fill="#f6fbff" opacity="0.18"/>
<circle cx="1066.0" cy="1868.1" r="1.77" fill="#f6fbff" opacity="0.33"/>
<circle cx="665.8" cy="2138.7" r="2.99" fill="#f6fbff" opacity="0.31"/>
<circle cx="568.9" cy="4.9" r="1.17" fill="#f6fbff" opacity="0.35"/>
<circle cx="932.2" cy="212.2" r="1.77" fill="#f6fbff" opacity="0.50"/>
<circle cx="711.5" cy="783.4" r="1.35" fill="#f6fbff" opacity="0.27"/>
<circle cx="533.2" cy="98.5" r="1.62" fill="#f6fbff" opacity="0.51"/>
<circle cx="1064.8" cy="1612.0" r="1.55" fill="#f6fbff" opacity="0.25"/>
<circle cx="912.7" cy="2219.0" r="1.91" fill="#f6fbff" opacity="0.39"/>
<circle cx="6.8" cy="66.6" r="0.88" fill="#f6fbff" opacity="0.49"/>
<circle cx="926.5" cy="83.7" r="1.72" fill="#f6fbff" opacity="0.19"/>
<circle cx="1037.3" cy="1652.9" r="1.94" fill="#f6fbff" opacity="0.43"/>
<circle cx="303.1" cy="2090.8" r="1.32" fill="#f6fbff" opacity="0.38"/>
<circle cx="74.4" cy="2065.3" r="0.79" fill="#f6fbff" opacity="0.51"/>
<circle cx="756.7" cy="18.5" r="1.88" fill="#f6fbff" opacity="0.36"/>
<circle cx="997.3" cy="593.0" r="2.18" fill="#f6fbff" opacity="0.21"/>
<circle cx="707.7" cy="485.4" r="0.98" fill="#f6fbff" opacity="0.46"/>
<circle cx="230.2" cy="16.6" r="1.92" fill="#f6fbff" opacity="0.31"/>
<circle cx="342.5" cy="1277.0" r="1.72" fill="#f6fbff" opacity="0.48"/>
<circle cx="481.3" cy="2005.8" r="1.91" fill="#f6fbff" opacity="0.26"/>
<circle cx="798.2" cy="133.4" r="1.69" fill="#f6fbff" opacity="0.20"/>
<circle cx="12.2" cy="11.3" r="1.93" fill="#f6fbff" opacity="0.21"/>
<circle cx="896.7" cy="82.4" r="1.80" fill="#f6fbff" opacity="0.20"/>
<circle cx="253.1" cy="2325.7" r="2.99" fill="#f6fbff" opacity="0.22"/>
<circle cx="986.8" cy="84.1" r="1.93" fill="#f6fbff" opacity="0.18"/>
<circle cx="86.9" cy="930.0" r="1.43" fill="#f6fbff" opacity="0.24"/>
<circle cx="331.9" cy="702.7" r="1.89" fill="#f6fbff" opacity="0.34"/>
<circle cx="555.6" cy="2397.1" r="1.78" fill="#f6fbff" opacity="0.54"/>
<circle cx="524.5" cy="1748.1" r="1.72" fill="#f6fbff" opacity="0.41"/>
<circle cx="1016.8" cy="1544.7" r="1.46" fill="#f6fbff" opacity="0.49"/>
<circle cx="298.2" cy="1320.5" r="1.12" fill="#f6fbff" opacity="0.30"/>
<circle cx="326.2" cy="508.6" r="1.76" fill="#f6fbff" opacity="0.28"/>
<circle cx="863.5" cy="33.0" r="1.45" fill="#f6fbff" opacity="0.36"/>
<circle cx="126.0" cy="33.8" r="0.76" fill="#f6fbff" opacity="0.42"/>
<circle cx="697.6" cy="1358.8" r="1.01" fill="#f6fbff" opacity="0.30"/>
<circle cx="503.6" cy="2236.9" r="2.23" fill="#f6fbff" opacity="0.21"/>
<circle cx="839.5" cy="2360.4" r="1.87" fill="#f6fbff" opacity="0.22"/>
<circle cx="89.1" cy="260.1" r="1.81" fill="#f6fbff" opacity="0.24"/>
<circle cx="470.9" cy="1914.2" r="1.58" fill="#f6fbff" opacity="0.26"/>
<circle cx="817.0" cy="1515.9" r="1.60" fill="#f6fbff" opacity="0.54"/>
<circle cx="300.6" cy="2328.3" r="1.30" fill="#f6fbff" opacity="0.34"/>
<circle cx="678.0" cy="180.8" r="1.77" fill="#f6fbff" opacity="0.26"/>
<circle cx="983.6" cy="917.2" r="1.22" fill="#f6fbff" opacity="0.25"/>
<circle cx="625.8" cy="2329.1" r="1.07" fill="#f6fbff" opacity="0.31"/>
<circle cx="146.4" cy="82.0" r="1.67" fill="#f6fbff" opacity="0.20"/>
<circle cx="76.0" cy="879.3" r="3.39" fill="#f6fbff" opacity="0.29"/>
<circle cx="19.7" cy="1895.5" r="1.08" fill="#f6fbff" opacity="0.18"/>
<circle cx="108.4" cy="263.6" r="1.94" fill="#f6fbff" opacity="0.30"/>
<circle cx="1043.9" cy="144.7" r="1.25" fill="#f6fbff" opacity="0.49"/>
<circle cx="903.9" cy="462.4" r="1.46" fill="#f6fbff" opacity="0.51"/>
<circle cx="129.5" cy="2227.7" r="0.88" fill="#f6fbff" opacity="0.48"/>
<circle cx="593.6" cy="547.1" r="1.47" fill="#f6fbff" opacity="0.52"/>
<circle cx="946.0" cy="145.9" r="1.13" fill="#f6fbff" opacity="0.18"/>
<circle cx="560.4" cy="848.0" r="0.96" fill="#f6fbff" opacity="0.23"/>
<circle cx="63.7" cy="1337.7" r="1.50" fill="#f6fbff" opacity="0.46"/>
<circle cx="9.9" cy="893.7" r="1.58" fill="#f6fbff" opacity="0.26"/>
<circle cx="985.7" cy="284.9" r="1.50" fill="#f6fbff" opacity="0.25"/>
<circle cx="28.6" cy="419.3" r="1.51" fill="#f6fbff" opacity="0.34"/>
<circle cx="717.1" cy="1108.1" r="1.54" fill="#f6fbff" opacity="0.51"/>
<circle cx="99.8" cy="2247.1" r="1.24" fill="#f6fbff" opacity="0.24"/>
<circle cx="316.5" cy="219.7" r="0.86" fill="#f6fbff" opacity="0.46"/>
<circle cx="65.3" cy="554.4" r="1.15" fill="#f6fbff" opacity="0.41"/>
<circle cx="25.7" cy="2097.3" r="1.59" fill="#f6fbff" opacity="0.29"/>
<circle cx="1030.7" cy="2325.1" r="1.93" fill="#f6fbff" opacity="0.42"/>
<circle cx="910.1" cy="33.4" r="1.47" fill="#f6fbff" opacity="0.41"/>
<circle cx="755.7" cy="1326.3" r="1.02" fill="#f6fbff" opacity="0.21"/>
<circle cx="133.5" cy="2109.2" r="0.88" fill="#f6fbff" opacity="0.20"/>
<circle cx="28.8" cy="103.2" r="0.95" fill="#f6fbff" opacity="0.54"/>
<circle cx="640.5" cy="1263.9" r="1.58" fill="#f6fbff" opacity="0.18"/>
<circle cx="52.7" cy="47.8" r="1.75" fill="#f6fbff" opacity="0.20"/>
<circle cx="489.4" cy="133.1" r="1.75" fill="#f6fbff" opacity="0.19"/>
<circle cx="1030.6" cy="152.7" r="1.67" fill="#f6fbff" opacity="0.50"/>
<circle cx="439.8" cy="2236.4" r="1.86" fill="#f6fbff" opacity="0.47"/>
<circle cx="112.1" cy="247.2" r="2.50" fill="#f6fbff" opacity="0.47"/>
<circle cx="1078.9" cy="1153.3" r="1.02" fill="#f6fbff" opacity="0.34"/>
<circle cx="15.3" cy="2147.6" r="1.79" fill="#f6fbff" opacity="0.26"/>
<circle cx="831.1" cy="10.1" r="1.87" fill="#f6fbff" opacity="0.47"/>
<circle cx="873.3" cy="24.1" r="1.05" fill="#f6fbff" opacity="0.42"/>
<circle cx="271.4" cy="19.2" r="2.96" fill="#f6fbff" opacity="0.51"/>
<circle cx="816.3" cy="814.9" r="1.31" fill="#f6fbff" opacity="0.46"/>
<circle cx="1049.4" cy="547.8" r="1.21" fill="#f6fbff" opacity="0.40"/>
<circle cx="965.6" cy="675.9" r="1.09" fill="#f6fbff" opacity="0.25"/>
<circle cx="98.2" cy="1523.4" r="1.52" fill="#f6fbff" opacity="0.50"/>
<circle cx="953.3" cy="9.1" r="2.56" fill="#f6fbff" opacity="0.39"/>
<circle cx="892.7" cy="474.6" r="1.83" fill="#f6fbff" opacity="0.32"/>
<circle cx="946.2" cy="560.2" r="1.27" fill="#f6fbff" opacity="0.30"/>
<circle cx="1041.8" cy="23.6" r="1.21" fill="#f6fbff" opacity="0.23"/>
<circle cx="726.5" cy="1599.1" r="1.27" fill="#f6fbff" opacity="0.19"/>
<circle cx="34.3" cy="0.7" r="2.85" fill="#f6fbff" opacity="0.31"/></g>
  <g transform="translate(0 18)">
    <ellipse cx="540" cy="820" rx="318" ry="318" fill="#051b19" opacity=".22" filter="url(#starGlow)"/>
    <g opacity="0.88" filter="url(#embossTeal)">
<circle cx="540" cy="798" r="382" fill="none" stroke="#a7ecea" stroke-width="1.15" opacity=".46"/>
<circle cx="540" cy="798" r="314" fill="none" stroke="#85d7ce" stroke-width="1" opacity=".6" stroke-dasharray="2 12"/>
<circle cx="540" cy="798" r="246" fill="none" stroke="#a7ecea" stroke-width="1.25" opacity=".64"/>
<circle cx="540" cy="798" r="182" fill="none" stroke="#85d7ce" stroke-width=".95" opacity=".68" stroke-dasharray="8 9"/>
<path d="M 529.73 706.57 Q 577.05 421.82 567.91 710.33" fill="none" stroke="#a7ecea" stroke-width="1.25" opacity="0.8" stroke-linecap="round"/>
<path d="M 597.39 726.09 Q 832.20 558.20 621.72 755.74" fill="none" stroke="#a7ecea" stroke-width="1.25" opacity="0.8" stroke-linecap="round"/>
<path d="M 631.43 787.73 Q 916.18 835.05 627.67 825.91" fill="none" stroke="#a7ecea" stroke-width="1.25" opacity="0.8" stroke-linecap="round"/>
<path d="M 611.91 855.39 Q 779.80 1090.20 582.26 879.72" fill="none" stroke="#a7ecea" stroke-width="1.25" opacity="0.8" stroke-linecap="round"/>
<path d="M 550.27 889.43 Q 502.95 1174.18 512.09 885.67" fill="none" stroke="#a7ecea" stroke-width="1.25" opacity="0.8" stroke-linecap="round"/>
<path d="M 482.61 869.91 Q 247.80 1037.80 458.28 840.26" fill="none" stroke="#a7ecea" stroke-width="1.25" opacity="0.8" stroke-linecap="round"/>
<path d="M 448.57 808.27 Q 163.82 760.95 452.33 770.09" fill="none" stroke="#a7ecea" stroke-width="1.25" opacity="0.8" stroke-linecap="round"/>
<path d="M 468.09 740.61 Q 300.20 505.80 497.74 716.28" fill="none" stroke="#a7ecea" stroke-width="1.25" opacity="0.8" stroke-linecap="round"/>
<path d="M 536.25 680.06 Q 573.13 461.63 566.69 683.06" fill="none" stroke="#85d7ce" stroke-width="0.82" opacity="0.64" stroke-linecap="round"/>
<path d="M 581.66 687.60 Q 699.33 499.91 608.65 702.02" fill="none" stroke="#85d7ce" stroke-width="0.82" opacity="0.64" stroke-linecap="round"/>
<path d="M 620.74 711.95 Q 801.28 583.58 640.15 735.60" fill="none" stroke="#85d7ce" stroke-width="0.82" opacity="0.64" stroke-linecap="round"/>
<path d="M 647.53 749.40 Q 863.45 699.88 656.41 778.67" fill="none" stroke="#85d7ce" stroke-width="0.82" opacity="0.64" stroke-linecap="round"/>
<path d="M 657.94 794.25 Q 876.37 831.13 654.94 824.69" fill="none" stroke="#85d7ce" stroke-width="0.82" opacity="0.64" stroke-linecap="round"/>
<path d="M 650.40 839.66 Q 838.09 957.33 635.98 866.65" fill="none" stroke="#85d7ce" stroke-width="0.82" opacity="0.64" stroke-linecap="round"/>
<path d="M 626.05 878.74 Q 754.42 1059.28 602.40 898.15" fill="none" stroke="#85d7ce" stroke-width="0.82" opacity="0.64" stroke-linecap="round"/>
<path d="M 588.60 905.53 Q 638.12 1121.45 559.33 914.41" fill="none" stroke="#85d7ce" stroke-width="0.82" opacity="0.64" stroke-linecap="round"/>
<path d="M 543.75 915.94 Q 506.87 1134.37 513.31 912.94" fill="none" stroke="#85d7ce" stroke-width="0.82" opacity="0.64" stroke-linecap="round"/>
<path d="M 498.34 908.40 Q 380.67 1096.09 471.35 893.98" fill="none" stroke="#85d7ce" stroke-width="0.82" opacity="0.64" stroke-linecap="round"/>
<path d="M 459.26 884.05 Q 278.72 1012.42 439.85 860.40" fill="none" stroke="#85d7ce" stroke-width="0.82" opacity="0.64" stroke-linecap="round"/>
<path d="M 432.47 846.60 Q 216.55 896.12 423.59 817.33" fill="none" stroke="#85d7ce" stroke-width="0.82" opacity="0.64" stroke-linecap="round"/>
<path d="M 422.06 801.75 Q 203.63 764.87 425.06 771.31" fill="none" stroke="#85d7ce" stroke-width="0.82" opacity="0.64" stroke-linecap="round"/>
<path d="M 429.60 756.34 Q 241.91 638.67 444.02 729.35" fill="none" stroke="#85d7ce" stroke-width="0.82" opacity="0.64" stroke-linecap="round"/>
<path d="M 453.95 717.26 Q 325.58 536.72 477.60 697.85" fill="none" stroke="#85d7ce" stroke-width="0.82" opacity="0.64" stroke-linecap="round"/>
<path d="M 491.40 690.47 Q 441.88 474.55 520.67 681.59" fill="none" stroke="#85d7ce" stroke-width="0.82" opacity="0.64" stroke-linecap="round"/>
<path d="M 543.02 632.03 Q 578.42 407.89 569.42 634.63" fill="none" stroke="#a7ecea" stroke-width="0.62" opacity="0.5" stroke-linecap="round"/>
<path d="M 585.87 638.46 Q 678.08 431.12 610.70 647.81" fill="none" stroke="#a7ecea" stroke-width="0.62" opacity="0.5" stroke-linecap="round"/>
<path d="M 625.60 655.77 Q 768.33 479.36 647.17 671.23" fill="none" stroke="#a7ecea" stroke-width="0.62" opacity="0.5" stroke-linecap="round"/>
<path d="M 659.49 682.77 Q 843.02 549.32 676.33 703.28" fill="none" stroke="#a7ecea" stroke-width="0.62" opacity="0.5" stroke-linecap="round"/>
<path d="M 685.24 717.63 Q 897.06 636.22 696.19 741.79" fill="none" stroke="#a7ecea" stroke-width="0.62" opacity="0.5" stroke-linecap="round"/>
<path d="M 701.10 757.96 Q 926.76 734.14 705.42 784.13" fill="none" stroke="#a7ecea" stroke-width="0.62" opacity="0.5" stroke-linecap="round"/>
<path d="M 705.97 801.02 Q 930.11 836.42 703.37 827.42" fill="none" stroke="#a7ecea" stroke-width="0.62" opacity="0.5" stroke-linecap="round"/>
<path d="M 699.54 843.87 Q 906.88 936.08 690.19 868.70" fill="none" stroke="#a7ecea" stroke-width="0.62" opacity="0.5" stroke-linecap="round"/>
<path d="M 682.23 883.60 Q 858.64 1026.33 666.77 905.17" fill="none" stroke="#a7ecea" stroke-width="0.62" opacity="0.5" stroke-linecap="round"/>
<path d="M 655.23 917.49 Q 788.68 1101.02 634.72 934.33" fill="none" stroke="#a7ecea" stroke-width="0.62" opacity="0.5" stroke-linecap="round"/>
<path d="M 620.37 943.24 Q 701.78 1155.06 596.21 954.19" fill="none" stroke="#a7ecea" stroke-width="0.62" opacity="0.5" stroke-linecap="round"/>
<path d="M 580.04 959.10 Q 603.86 1184.76 553.87 963.42" fill="none" stroke="#a7ecea" stroke-width="0.62" opacity="0.5" stroke-linecap="round"/>
<path d="M 536.98 963.97 Q 501.58 1188.11 510.58 961.37" fill="none" stroke="#a7ecea" stroke-width="0.62" opacity="0.5" stroke-linecap="round"/>
<path d="M 494.13 957.54 Q 401.92 1164.88 469.30 948.19" fill="none" stroke="#a7ecea" stroke-width="0.62" opacity="0.5" stroke-linecap="round"/>
<path d="M 454.40 940.23 Q 311.67 1116.64 432.83 924.77" fill="none" stroke="#a7ecea" stroke-width="0.62" opacity="0.5" stroke-linecap="round"/>
<path d="M 420.51 913.23 Q 236.98 1046.68 403.67 892.72" fill="none" stroke="#a7ecea" stroke-width="0.62" opacity="0.5" stroke-linecap="round"/>
<path d="M 394.76 878.37 Q 182.94 959.78 383.81 854.21" fill="none" stroke="#a7ecea" stroke-width="0.62" opacity="0.5" stroke-linecap="round"/>
<path d="M 378.90 838.04 Q 153.24 861.86 374.58 811.87" fill="none" stroke="#a7ecea" stroke-width="0.62" opacity="0.5" stroke-linecap="round"/>
<path d="M 374.03 794.98 Q 149.89 759.58 376.63 768.58" fill="none" stroke="#a7ecea" stroke-width="0.62" opacity="0.5" stroke-linecap="round"/>
<path d="M 380.46 752.13 Q 173.12 659.92 389.81 727.30" fill="none" stroke="#a7ecea" stroke-width="0.62" opacity="0.5" stroke-linecap="round"/>
<path d="M 397.77 712.40 Q 221.36 569.67 413.23 690.83" fill="none" stroke="#a7ecea" stroke-width="0.62" opacity="0.5" stroke-linecap="round"/>
<path d="M 424.77 678.51 Q 291.32 494.98 445.28 661.67" fill="none" stroke="#a7ecea" stroke-width="0.62" opacity="0.5" stroke-linecap="round"/>
<path d="M 459.63 652.76 Q 378.22 440.94 483.79 641.81" fill="none" stroke="#a7ecea" stroke-width="0.62" opacity="0.5" stroke-linecap="round"/>
<path d="M 499.96 636.90 Q 476.14 411.24 526.13 632.58" fill="none" stroke="#a7ecea" stroke-width="0.62" opacity="0.5" stroke-linecap="round"/>
<path d="M 549.93 568.21 Q 581.36 378.03 575.09 570.69" fill="none" stroke="#85d7ce" stroke-width="0.48" opacity="0.42" stroke-linecap="round"/>
<path d="M 594.57 574.57 Q 662.50 394.17 618.76 581.91" fill="none" stroke="#85d7ce" stroke-width="0.48" opacity="0.42" stroke-linecap="round"/>
<path d="M 637.11 589.50 Q 738.93 425.83 659.41 601.42" fill="none" stroke="#85d7ce" stroke-width="0.48" opacity="0.42" stroke-linecap="round"/>
<path d="M 675.92 612.46 Q 807.71 471.79 695.46 628.50" fill="none" stroke="#85d7ce" stroke-width="0.48" opacity="0.42" stroke-linecap="round"/>
<path d="M 709.50 642.54 Q 866.21 530.29 725.54 662.08" fill="none" stroke="#85d7ce" stroke-width="0.48" opacity="0.42" stroke-linecap="round"/>
<path d="M 736.58 678.59 Q 912.17 599.07 748.50 700.89" fill="none" stroke="#85d7ce" stroke-width="0.48" opacity="0.42" stroke-linecap="round"/>
<path d="M 756.09 719.24 Q 943.83 675.50 763.43 743.43" fill="none" stroke="#85d7ce" stroke-width="0.48" opacity="0.42" stroke-linecap="round"/>
<path d="M 767.31 762.91 Q 959.97 756.64 769.79 788.07" fill="none" stroke="#85d7ce" stroke-width="0.48" opacity="0.42" stroke-linecap="round"/>
<path d="M 769.79 807.93 Q 959.97 839.36 767.31 833.09" fill="none" stroke="#85d7ce" stroke-width="0.48" opacity="0.42" stroke-linecap="round"/>
<path d="M 763.43 852.57 Q 943.83 920.50 756.09 876.76" fill="none" stroke="#85d7ce" stroke-width="0.48" opacity="0.42" stroke-linecap="round"/>
<path d="M 748.50 895.11 Q 912.17 996.93 736.58 917.41" fill="none" stroke="#85d7ce" stroke-width="0.48" opacity="0.42" stroke-linecap="round"/>
<path d="M 725.54 933.92 Q 866.21 1065.71 709.50 953.46" fill="none" stroke="#85d7ce" stroke-width="0.48" opacity="0.42" stroke-linecap="round"/>
<path d="M 695.46 967.50 Q 807.71 1124.21 675.92 983.54" fill="none" stroke="#85d7ce" stroke-width="0.48" opacity="0.42" stroke-linecap="round"/>
<path d="M 659.41 994.58 Q 738.93 1170.17 637.11 1006.50" fill="none" stroke="#85d7ce" stroke-width="0.48" opacity="0.42" stroke-linecap="round"/>
<path d="M 618.76 1014.09 Q 662.50 1201.83 594.57 1021.43" fill="none" stroke="#85d7ce" stroke-width="0.48" opacity="0.42" stroke-linecap="round"/>
<path d="M 575.09 1025.31 Q 581.36 1217.97 549.93 1027.79" fill="none" stroke="#85d7ce" stroke-width="0.48" opacity="0.42" stroke-linecap="round"/>
<path d="M 530.07 1027.79 Q 498.64 1217.97 504.91 1025.31" fill="none" stroke="#85d7ce" stroke-width="0.48" opacity="0.42" stroke-linecap="round"/>
<path d="M 485.43 1021.43 Q 417.50 1201.83 461.24 1014.09" fill="none" stroke="#85d7ce" stroke-width="0.48" opacity="0.42" stroke-linecap="round"/>
<path d="M 442.89 1006.50 Q 341.07 1170.17 420.59 994.58" fill="none" stroke="#85d7ce" stroke-width="0.48" opacity="0.42" stroke-linecap="round"/>
<path d="M 404.08 983.54 Q 272.29 1124.21 384.54 967.50" fill="none" stroke="#85d7ce" stroke-width="0.48" opacity="0.42" stroke-linecap="round"/>
<path d="M 370.50 953.46 Q 213.79 1065.71 354.46 933.92" fill="none" stroke="#85d7ce" stroke-width="0.48" opacity="0.42" stroke-linecap="round"/>
<path d="M 343.42 917.41 Q 167.83 996.93 331.50 895.11" fill="none" stroke="#85d7ce" stroke-width="0.48" opacity="0.42" stroke-linecap="round"/>
<path d="M 323.91 876.76 Q 136.17 920.50 316.57 852.57" fill="none" stroke="#85d7ce" stroke-width="0.48" opacity="0.42" stroke-linecap="round"/>
<path d="M 312.69 833.09 Q 120.03 839.36 310.21 807.93" fill="none" stroke="#85d7ce" stroke-width="0.48" opacity="0.42" stroke-linecap="round"/>
<path d="M 310.21 788.07 Q 120.03 756.64 312.69 762.91" fill="none" stroke="#85d7ce" stroke-width="0.48" opacity="0.42" stroke-linecap="round"/>
<path d="M 316.57 743.43 Q 136.17 675.50 323.91 719.24" fill="none" stroke="#85d7ce" stroke-width="0.48" opacity="0.42" stroke-linecap="round"/>
<path d="M 331.50 700.89 Q 167.83 599.07 343.42 678.59" fill="none" stroke="#85d7ce" stroke-width="0.48" opacity="0.42" stroke-linecap="round"/>
<path d="M 354.46 662.08 Q 213.79 530.29 370.50 642.54" fill="none" stroke="#85d7ce" stroke-width="0.48" opacity="0.42" stroke-linecap="round"/>
<path d="M 384.54 628.50 Q 272.29 471.79 404.08 612.46" fill="none" stroke="#85d7ce" stroke-width="0.48" opacity="0.42" stroke-linecap="round"/>
<path d="M 420.59 601.42 Q 341.07 425.83 442.89 589.50" fill="none" stroke="#85d7ce" stroke-width="0.48" opacity="0.42" stroke-linecap="round"/>
<path d="M 461.24 581.91 Q 417.50 394.17 485.43 574.57" fill="none" stroke="#85d7ce" stroke-width="0.48" opacity="0.42" stroke-linecap="round"/>
<path d="M 504.91 570.69 Q 498.64 378.03 530.07 568.21" fill="none" stroke="#85d7ce" stroke-width="0.48" opacity="0.42" stroke-linecap="round"/>
<line x1="554.03" y1="512.34" x2="561.10" y2="368.52" stroke="#a7ecea" stroke-width=".45" opacity=".34"/>
<line x1="581.96" y1="515.10" x2="605.74" y2="354.85" stroke="#85d7ce" stroke-width=".45" opacity=".34"/>
<line x1="609.49" y1="520.57" x2="644.48" y2="380.89" stroke="#a7ecea" stroke-width=".45" opacity=".34"/>
<line x1="636.35" y1="528.72" x2="690.93" y2="376.19" stroke="#85d7ce" stroke-width=".45" opacity=".34"/>
<line x1="662.28" y1="539.46" x2="723.85" y2="409.28" stroke="#a7ecea" stroke-width=".45" opacity=".34"/>
<line x1="687.03" y1="552.69" x2="770.32" y2="413.74" stroke="#85d7ce" stroke-width=".45" opacity=".34"/>
<line x1="710.37" y1="568.28" x2="796.15" y2="452.62" stroke="#a7ecea" stroke-width=".45" opacity=".34"/>
<line x1="732.07" y1="586.09" x2="840.86" y2="466.05" stroke="#85d7ce" stroke-width=".45" opacity=".34"/>
<line x1="751.91" y1="605.93" x2="858.61" y2="509.23" stroke="#a7ecea" stroke-width=".45" opacity=".34"/>
<line x1="769.72" y1="627.63" x2="899.84" y2="531.13" stroke="#85d7ce" stroke-width=".45" opacity=".34"/>
<line x1="785.31" y1="650.97" x2="908.82" y2="576.94" stroke="#a7ecea" stroke-width=".45" opacity=".34"/>
<line x1="798.54" y1="675.72" x2="944.99" y2="606.46" stroke="#85d7ce" stroke-width=".45" opacity=".34"/>
<line x1="809.28" y1="701.65" x2="944.86" y2="653.14" stroke="#a7ecea" stroke-width=".45" opacity=".34"/>
<line x1="817.43" y1="728.51" x2="974.57" y2="689.14" stroke="#85d7ce" stroke-width=".45" opacity=".34"/>
<line x1="822.90" y1="756.04" x2="965.35" y2="734.91" stroke="#a7ecea" stroke-width=".45" opacity=".34"/>
<line x1="825.66" y1="783.97" x2="987.46" y2="776.02" stroke="#85d7ce" stroke-width=".45" opacity=".34"/>
<line x1="825.66" y1="812.03" x2="969.48" y2="819.10" stroke="#a7ecea" stroke-width=".45" opacity=".34"/>
<line x1="822.90" y1="839.96" x2="983.15" y2="863.74" stroke="#85d7ce" stroke-width=".45" opacity=".34"/>
<line x1="817.43" y1="867.49" x2="957.11" y2="902.48" stroke="#a7ecea" stroke-width=".45" opacity=".34"/>
<line x1="809.28" y1="894.35" x2="961.81" y2="948.93" stroke="#85d7ce" stroke-width=".45" opacity=".34"/>
<line x1="798.54" y1="920.28" x2="928.72" y2="981.85" stroke="#a7ecea" stroke-width=".45" opacity=".34"/>
<line x1="785.31" y1="945.03" x2="924.26" y2="1028.32" stroke="#85d7ce" stroke-width=".45" opacity=".34"/>
<line x1="769.72" y1="968.37" x2="885.38" y2="1054.15" stroke="#a7ecea" stroke-width=".45" opacity=".34"/>
<line x1="751.91" y1="990.07" x2="871.95" y2="1098.86" stroke="#85d7ce" stroke-width=".45" opacity=".34"/>
<line x1="732.07" y1="1009.91" x2="828.77" y2="1116.61" stroke="#a7ecea" stroke-width=".45" opacity=".34"/>
<line x1="710.37" y1="1027.72" x2="806.87" y2="1157.84" stroke="#85d7ce" stroke-width=".45" opacity=".34"/>
<line x1="687.03" y1="1043.31" x2="761.06" y2="1166.82" stroke="#a7ecea" stroke-width=".45" opacity=".34"/>
<line x1="662.28" y1="1056.54" x2="731.54" y2="1202.99" stroke="#85d7ce" stroke-width=".45" opacity=".34"/>
<line x1="636.35" y1="1067.28" x2="684.86" y2="1202.86" stroke="#a7ecea" stroke-width=".45" opacity=".34"/>
<line x1="609.49" y1="1075.43" x2="648.86" y2="1232.57" stroke="#85d7ce" stroke-width=".45" opacity=".34"/>
<line x1="581.96" y1="1080.90" x2="603.09" y2="1223.35" stroke="#a7ecea" stroke-width=".45" opacity=".34"/>
<line x1="554.03" y1="1083.66" x2="561.98" y2="1245.46" stroke="#85d7ce" stroke-width=".45" opacity=".34"/>
<line x1="525.97" y1="1083.66" x2="518.90" y2="1227.48" stroke="#a7ecea" stroke-width=".45" opacity=".34"/>
<line x1="498.04" y1="1080.90" x2="474.26" y2="1241.15" stroke="#85d7ce" stroke-width=".45" opacity=".34"/>
<line x1="470.51" y1="1075.43" x2="435.52" y2="1215.11" stroke="#a7ecea" stroke-width=".45" opacity=".34"/>
<line x1="443.65" y1="1067.28" x2="389.07" y2="1219.81" stroke="#85d7ce" stroke-width=".45" opacity=".34"/>
<line x1="417.72" y1="1056.54" x2="356.15" y2="1186.72" stroke="#a7ecea" stroke-width=".45" opacity=".34"/>
<line x1="392.97" y1="1043.31" x2="309.68" y2="1182.26" stroke="#85d7ce" stroke-width=".45" opacity=".34"/>
<line x1="369.63" y1="1027.72" x2="283.85" y2="1143.38" stroke="#a7ecea" stroke-width=".45" opacity=".34"/>
<line x1="347.93" y1="1009.91" x2="239.14" y2="1129.95" stroke="#85d7ce" stroke-width=".45" opacity=".34"/>
<line x1="328.09" y1="990.07" x2="221.39" y2="1086.77" stroke="#a7ecea" stroke-width=".45" opacity=".34"/>
<line x1="310.28" y1="968.37" x2="180.16" y2="1064.87" stroke="#85d7ce" stroke-width=".45" opacity=".34"/>
<line x1="294.69" y1="945.03" x2="171.18" y2="1019.06" stroke="#a7ecea" stroke-width=".45" opacity=".34"/>
<line x1="281.46" y1="920.28" x2="135.01" y2="989.54" stroke="#85d7ce" stroke-width=".45" opacity=".34"/>
<line x1="270.72" y1="894.35" x2="135.14" y2="942.86" stroke="#a7ecea" stroke-width=".45" opacity=".34"/>
<line x1="262.57" y1="867.49" x2="105.43" y2="906.86" stroke="#85d7ce" stroke-width=".45" opacity=".34"/>
<line x1="257.10" y1="839.96" x2="114.65" y2="861.09" stroke="#a7ecea" stroke-width=".45" opacity=".34"/>
<line x1="254.34" y1="812.03" x2="92.54" y2="819.98" stroke="#85d7ce" stroke-width=".45" opacity=".34"/>
<line x1="254.34" y1="783.97" x2="110.52" y2="776.90" stroke="#a7ecea" stroke-width=".45" opacity=".34"/>
<line x1="257.10" y1="756.04" x2="96.85" y2="732.26" stroke="#85d7ce" stroke-width=".45" opacity=".34"/>
<line x1="262.57" y1="728.51" x2="122.89" y2="693.52" stroke="#a7ecea" stroke-width=".45" opacity=".34"/>
<line x1="270.72" y1="701.65" x2="118.19" y2="647.07" stroke="#85d7ce" stroke-width=".45" opacity=".34"/>
<line x1="281.46" y1="675.72" x2="151.28" y2="614.15" stroke="#a7ecea" stroke-width=".45" opacity=".34"/>
<line x1="294.69" y1="650.97" x2="155.74" y2="567.68" stroke="#85d7ce" stroke-width=".45" opacity=".34"/>
<line x1="310.28" y1="627.63" x2="194.62" y2="541.85" stroke="#a7ecea" stroke-width=".45" opacity=".34"/>
<line x1="328.09" y1="605.93" x2="208.05" y2="497.14" stroke="#85d7ce" stroke-width=".45" opacity=".34"/>
<line x1="347.93" y1="586.09" x2="251.23" y2="479.39" stroke="#a7ecea" stroke-width=".45" opacity=".34"/>
<line x1="369.63" y1="568.28" x2="273.13" y2="438.16" stroke="#85d7ce" stroke-width=".45" opacity=".34"/>
<line x1="392.97" y1="552.69" x2="318.94" y2="429.18" stroke="#a7ecea" stroke-width=".45" opacity=".34"/>
<line x1="417.72" y1="539.46" x2="348.46" y2="393.01" stroke="#85d7ce" stroke-width=".45" opacity=".34"/>
<line x1="443.65" y1="528.72" x2="395.14" y2="393.14" stroke="#a7ecea" stroke-width=".45" opacity=".34"/>
<line x1="470.51" y1="520.57" x2="431.14" y2="363.43" stroke="#85d7ce" stroke-width=".45" opacity=".34"/>
<line x1="498.04" y1="515.10" x2="476.91" y2="372.65" stroke="#a7ecea" stroke-width=".45" opacity=".34"/>
<line x1="525.97" y1="512.34" x2="518.02" y2="350.54" stroke="#85d7ce" stroke-width=".45" opacity=".34"/>
<polygon points="567.25,521.34 671.05,552.83 754.90,621.64 806.03,717.30 816.66,825.25 785.17,929.05 716.36,1012.90 620.70,1064.03 512.75,1074.66 408.95,1043.17 325.10,974.36 273.97,878.70 263.34,770.75 294.83,666.95 363.64,583.10 459.30,531.97" fill="none" stroke="#85d7ce" stroke-width=".65" opacity=".38"/>
<polygon points="614.31,553.02 702.40,600.11 765.77,677.32 794.77,772.91 784.98,872.31 737.89,960.40 660.68,1023.77 565.09,1052.77 465.69,1042.98 377.60,995.89 314.23,918.68 285.23,823.09 295.02,723.69 342.11,635.60 419.32,572.23 514.91,543.23" fill="none" stroke="#85d7ce" stroke-width=".45" opacity=".32"/>
<polygon points="572.35,469.59 695.56,506.97 795.09,588.65 855.79,702.21 868.41,830.35 831.03,953.56 749.35,1053.09 635.79,1113.79 507.65,1126.41 384.44,1089.03 284.91,1007.35 224.21,893.79 211.59,765.65 248.97,642.44 330.65,542.91 444.21,482.21" fill="none" stroke="#85d7ce" stroke-width=".65" opacity=".38"/>
<polygon points="629.41,503.26 735.39,559.91 811.63,652.81 846.52,767.81 834.74,887.41 778.09,993.39 685.19,1069.63 570.19,1104.52 450.59,1092.74 344.61,1036.09 268.37,943.19 233.48,828.19 245.26,708.59 301.91,602.61 394.81,526.37 509.81,491.48" fill="none" stroke="#85d7ce" stroke-width=".45" opacity=".32"/>
<polygon points="577.83,413.86 721.96,457.58 838.38,553.12 909.38,685.95 924.14,835.83 880.42,979.96 784.88,1096.38 652.05,1167.38 502.17,1182.14 358.04,1138.42 241.62,1042.88 170.62,910.05 155.86,760.17 199.58,616.04 295.12,499.62 427.95,428.62" fill="none" stroke="#85d7ce" stroke-width=".65" opacity=".38"/>
<polygon points="645.66,449.67 770.92,516.62 861.02,626.41 902.25,762.32 888.33,903.66 821.38,1028.92 711.59,1119.02 575.68,1160.25 434.34,1146.33 309.08,1079.38 218.98,969.59 177.75,833.68 191.67,692.34 258.62,567.08 368.41,476.98 504.32,435.75" fill="none" stroke="#85d7ce" stroke-width=".45" opacity=".32"/>
<polygon points="582.93,362.11 667.14,378.86 746.47,411.72 817.86,459.42 878.58,520.14 926.28,591.53 959.14,670.86 975.89,755.07 975.89,840.93 959.14,925.14 926.28,1004.47 878.58,1075.86 817.86,1136.58 746.47,1184.28 667.14,1217.14 582.93,1233.89 497.07,1233.89 412.86,1217.14 333.53,1184.28 262.14,1136.58 201.42,1075.86 153.72,1004.47 120.86,925.14 104.11,840.93 104.11,755.07 120.86,670.86 153.72,591.53 201.42,520.14 262.14,459.42 333.53,411.72 412.86,378.86 497.07,362.11" fill="none" stroke="#85d7ce" stroke-width=".65" opacity=".38"/>
<polygon points="621.16,389.99 699.20,413.67 771.12,452.11 834.16,503.84 885.89,566.88 924.33,638.80 948.01,716.84 956.00,798.00 948.01,879.16 924.33,957.20 885.89,1029.12 834.16,1092.16 771.12,1143.89 699.20,1182.33 621.16,1206.01 540.00,1214.00 458.84,1206.01 380.80,1182.33 308.88,1143.89 245.84,1092.16 194.11,1029.12 155.67,957.20 131.99,879.16 124.00,798.00 131.99,716.84 155.67,638.80 194.11,566.88 245.84,503.84 308.88,452.11 380.80,413.67 458.84,389.99 540.00,382.00" fill="none" stroke="#85d7ce" stroke-width=".45" opacity=".32"/>
</g>
<g filter="url(#goldPress)">
<circle cx="540" cy="798" r="124" fill="url(#centerVoid)" stroke="url(#goldStroke)" stroke-width="9"/>
<circle cx="540" cy="798" r="104" fill="none" stroke="#f3d48a" stroke-width="1.4" opacity=".72"/>
<circle cx="540" cy="798" r="139" fill="none" stroke="#9a7331" stroke-width="1" opacity=".62"/>
<path d="M 542.74 770.13 L 571.00 715.64 L 525.67 711.18 Z" fill="url(#triGold)" opacity="0.38" stroke="#d9b25b" stroke-width=".7"/>
<path d="M 556.31 775.24 L 608.02 742.17 L 571.00 715.64 Z" fill="url(#triGold)" opacity="0.45" stroke="#d9b25b" stroke-width=".7"/>
<path d="M 565.50 786.44 L 626.82 783.67 L 608.02 742.17 Z" fill="url(#triGold)" opacity="0.52" stroke="#d9b25b" stroke-width=".7"/>
<path d="M 567.87 800.74 L 622.36 829.00 L 626.82 783.67 Z" fill="url(#triGold)" opacity="0.38" stroke="#d9b25b" stroke-width=".7"/>
<path d="M 562.76 814.31 L 595.83 866.02 L 622.36 829.00 Z" fill="url(#triGold)" opacity="0.45" stroke="#d9b25b" stroke-width=".7"/>
<path d="M 551.56 823.50 L 554.33 884.82 L 595.83 866.02 Z" fill="url(#triGold)" opacity="0.52" stroke="#d9b25b" stroke-width=".7"/>
<path d="M 537.26 825.87 L 509.00 880.36 L 554.33 884.82 Z" fill="url(#triGold)" opacity="0.38" stroke="#d9b25b" stroke-width=".7"/>
<path d="M 523.69 820.76 L 471.98 853.83 L 509.00 880.36 Z" fill="url(#triGold)" opacity="0.45" stroke="#d9b25b" stroke-width=".7"/>
<path d="M 514.50 809.56 L 453.18 812.33 L 471.98 853.83 Z" fill="url(#triGold)" opacity="0.52" stroke="#d9b25b" stroke-width=".7"/>
<path d="M 512.13 795.26 L 457.64 767.00 L 453.18 812.33 Z" fill="url(#triGold)" opacity="0.38" stroke="#d9b25b" stroke-width=".7"/>
<path d="M 517.24 781.69 L 484.17 729.98 L 457.64 767.00 Z" fill="url(#triGold)" opacity="0.45" stroke="#d9b25b" stroke-width=".7"/>
<path d="M 528.44 772.50 L 525.67 711.18 L 484.17 729.98 Z" fill="url(#triGold)" opacity="0.52" stroke="#d9b25b" stroke-width=".7"/>
<circle cx="540" cy="798" r="36" fill="#173d35" opacity=".72"/>
<circle cx="540" cy="798" r="31" fill="none" stroke="#edcc80" stroke-width="1" opacity=".52"/>
</g>
  </g>
  <path d="M0 1350 C260 1430 834 1374 1080 1460 L1080 2400 L0 2400 Z" fill="#061f1d" opacity="0.42"/>
  <rect x="64" y="1760" width="952" height="1" fill="#acdcd8" opacity=".045"/>
  <circle cx="540" cy="816" r="476" fill="none" stroke="#b5fffa" stroke-opacity=".035" stroke-width="1"/>
</svg>