<?xml version="1.0" encoding="UTF-8"?>
<svg xmlns="http://www.w3.org/2000/svg" width="1080" height="2400" viewBox="0 0 1080 2400">
  <defs>
    <linearGradient id="bg" x1="0" y1="0" x2="1" y2="1">
      <stop offset="0" stop-color="#0b2d27"/>
      <stop offset=".46" stop-color="#174b3e"/>
      <stop offset="1" stop-color="#061d1d"/>
    </linearGradient>
    <radialGradient id="halo" cx="50%" cy="30%" r="58%">
      <stop offset="0" stop-color="#2f6d5a" stop-opacity=".48"/>
      <stop offset=".42" stop-color="#173d35" stop-opacity=".16"/>
      <stop offset="1" stop-color="#071f1d" stop-opacity="0"/>
    </radialGradient>
    <linearGradient id="goldStroke" x1="0" y1="0" x2="1" y2="1">
      <stop offset="0" stop-color="#8e672c"/>
      <stop offset=".18" stop-color="#f0d087"/>
      <stop offset=".45" stop-color="#b68b43"/>
      <stop offset=".68" stop-color="#fff0b6"/>
      <stop offset="1" stop-color="#8a6229"/>
    </linearGradient>
    <linearGradient id="triGold" x1="0" y1="0" x2="1" y2="1">
      <stop offset="0" stop-color="#7a5729"/>
      <stop offset=".44" stop-color="#e7c06d"/>
      <stop offset="1" stop-color="#fff0b5"/>
    </linearGradient>
    <radialGradient id="centerVoid" cx="52%" cy="42%" r="62%">
      <stop offset="0" stop-color="#214d42"/>
      <stop offset=".52" stop-color="#143932"/>
      <stop offset="1" stop-color="#092421"/>
    </radialGradient>
    <filter id="leather">
      <feTurbulence type="fractalNoise" baseFrequency="0.78" numOctaves="5" seed="2419" result="noise"/>
      <feColorMatrix type="matrix" values="0.20 0 0 0 0  0 0.28 0 0 0  0 0 0.23 0 0  0 0 0 .18 0" result="grain"/>
      <feBlend in="SourceGraphic" in2="grain" mode="soft-light"/>
    </filter>
    <filter id="embossTeal" x="-20%" y="-20%" width="140%" height="140%">
      <feDropShadow dx="0" dy="1.4" stdDeviation=".8" flood-color="#031312" flood-opacity=".42"/>
      <feDropShadow dx="0" dy="-0.7" stdDeviation=".45" flood-color="#d5ffff" flood-opacity=".11"/>
    </filter>
    <filter id="goldPress" x="-30%" y="-30%" width="160%" height="160%">
      <feDropShadow dx="0" dy="8" stdDeviation="8" flood-color="#02110f" flood-opacity=".38"/>
      <feDropShadow dx="0" dy="-2" stdDeviation="1.2" flood-color="#fff1bc" flood-opacity=".28"/>
    </filter>
    <filter id="starGlow">
      <feGaussianBlur stdDeviation=".35" result="blur"/>
      <feMerge><feMergeNode in="blur"/><feMergeNode in="SourceGraphic"/></feMerge>
    </filter>
    <pattern id="brushed" width="13" height="13" patternUnits="userSpaceOnUse" patternTransform="rotate(32)">
      <rect width="13" height="13" fill="transparent"/>
      <path d="M0 2 H13 M0 7 H13 M0 11 H13" stroke="#fff2b8" stroke-opacity=".08" stroke-width=".9"/>
    </pattern>
  </defs>
  <rect width="1080" height="2400" fill="url(#bg)" filter="url(#leather)"/>
  <rect width="1080" height="2400" fill="url(#halo)"/>
  <rect width="1080" height="2400" fill="url(#brushed)" opacity=".18"/>
  <g filter="url(#starGlow)"><circle cx="573.3" cy="2216.7" r="1.28" fill="#f6fbff" opacity="0.73"/>
<circle cx="3.0" cy="23.2" r="1.62" fill="#f6fbff" opacity="0.23"/>
<circle cx="1054.2" cy="637.7" r="0.94" fill="#f6fbff" opacity="0.58"/>
<circle cx="139.5" cy="2227.7" r="1.74" fill="#f6fbff" opacity="0.60"/>
<circle cx="33.5" cy="677.4" r="0.87" fill="#f6fbff" opacity="0.58"/>
<circle cx="416.1" cy="40.1" r="0.94" fill="#f6fbff" opacity="0.42"/>
<circle cx="974.4" cy="576.3" r="1.67" fill="#f6fbff" opacity="0.43"/>
<circle cx="566.7" cy="1425.2" r="1.90" fill="#f6fbff" opacity="0.30"/>
<circle cx="820.9" cy="1898.1" r="0.95" fill="#f6fbff" opacity="0.28"/>
<circle cx="508.1" cy="49.6" r="1.20" fill="#f6fbff" opacity="0.68"/>
<circle cx="660.9" cy="121.6" r="1.50" fill="#f6fbff" opacity="0.31"/>
<circle cx="977.8" cy="252.8" r="1.32" fill="#f6fbff" opacity="0.61"/>
<circle cx="681.9" cy="1109.0" r="1.60" fill="#f6fbff" opacity="0.72"/>
<circle cx="1054.4" cy="2011.7" r="1.35" fill="#f6fbff" opacity="0.61"/>
<circle cx="1050.0" cy="116.4" r="1.91" fill="#f6fbff" opacity="0.54"/>
<circle cx="665.6" cy="1178.9" r="1.62" fill="#f6fbff" opacity="0.63"/>
<circle cx="103.1" cy="2268.1" r="1.84" fill="#f6fbff" opacity="0.39"/>
<circle cx="118.0" cy="2351.3" r="2.20" fill="#f6fbff" opacity="0.68"/>
<circle cx="99.5" cy="2203.6" r="1.17" fill="#f6fbff" opacity="0.28"/>
<circle cx="512.6" cy="2285.6" r="1.87" fill="#f6fbff" opacity="0.24"/>
<circle cx="130.5" cy="183.5" r="1.60" fill="#f6fbff" opacity="0.47"/>
<circle cx="49.7" cy="232.2" r="1.51" fill="#f6fbff" opacity="0.67"/>
<circle cx="23.5" cy="1617.8" r="1.22" fill="#f6fbff" opacity="0.74"/>
<circle cx="352.2" cy="264.7" r="1.23" fill="#f6fbff" opacity="0.44"/>
<circle cx="45.5" cy="1296.3" r="1.13" fill="#f6fbff" opacity="0.45"/>
<circle cx="542.7" cy="1199.5" r="1.48" fill="#f6fbff" opacity="0.65"/>
<circle cx="454.7" cy="213.0" r="1.39" fill="#f6fbff" opacity="0.48"/>
<circle cx="480.7" cy="64.2" r="1.56" fill="#f6fbff" opacity="0.25"/>
<circle cx="989.0" cy="760.2" r="1.09" fill="#f6fbff" opacity="0.60"/>
<circle cx="431.5" cy="200.8" r="0.85" fill="#f6fbff" opacity="0.72"/>
<circle cx="1056.0" cy="2197.5" r="1.42" fill="#f6fbff" opacity="0.72"/>
<circle cx="67.4" cy="188.1" r="1.54" fill="#f6fbff" opacity="0.65"/>
<circle cx="824.9" cy="2135.6" r="1.31" fill="#f6fbff" opacity="0.52"/>
<circle cx="1047.5" cy="495.2" r="2.48" fill="#f6fbff" opacity="0.39"/>
<circle cx="1045.9" cy="102.6" r="1.16" fill="#f6fbff" opacity="0.37"/>
<circle cx="240.3" cy="158.9" r="1.27" fill="#f6fbff" opacity="0.72"/>
<circle cx="467.4" cy="2212.9" r="1.55" fill="#f6fbff" opacity="0.62"/>
<circle cx="418.1" cy="2298.5" r="1.52" fill="#f6fbff" opacity="0.26"/>
<circle cx="392.8" cy="1048.6" r="0.85" fill="#f6fbff" opacity="0.47"/>
<circle cx="81.6" cy="2033.8" r="1.55" fill="#f6fbff" opacity="0.48"/>
<circle cx="463.3" cy="518.7" r="1.04" fill="#f6fbff" opacity="0.64"/>
<circle cx="1006.5" cy="121.5" r="1.11" fill="#f6fbff" opacity="0.37"/>
<circle cx="1023.5" cy="2110.1" r="1.46" fill="#f6fbff" opacity="0.64"/>
<circle cx="1066.2" cy="1221.6" r="1.05" fill="#f6fbff" opacity="0.22"/>
<circle cx="1048.6" cy="129.2" r="0.87" fill="#f6fbff" opacity="0.48"/>
<circle cx="63.1" cy="803.9" r="1.82" fill="#f6fbff" opacity="0.24"/>
<circle cx="102.4" cy="166.7" r="1.40" fill="#f6fbff" opacity="0.45"/>
<circle cx="97.8" cy="9.3" r="3.16" fill="#f6fbff" opacity="0.38"/>
<circle cx="204.3" cy="2278.4" r="1.68" fill="#f6fbff" opacity="0.36"/>
<circle cx="27.0" cy="397.7" r="1.09" fill="#f6fbff" opacity="0.39"/>
<circle cx="1022.6" cy="1422.0" r="1.03" fill="#f6fbff" opacity="0.28"/>
<circle cx="470.6" cy="167.3" r="1.27" fill="#f6fbff" opacity="0.28"/>
<circle cx="994.3" cy="174.0" r="2.27" fill="#f6fbff" opacity="0.62"/>
<circle cx="449.8" cy="198.6" r="1.30" fill="#f6fbff" opacity="0.67"/>
<circle cx="471.5" cy="2392.9" r="0.80" fill="#f6fbff" opacity="0.44"/>
<circle cx="1029.0" cy="72.8" r="1.36" fill="#f6fbff" opacity="0.38"/>
<circle cx="105.8" cy="2248.2" r="1.23" fill="#f6fbff" opacity="0.53"/>
<circle cx="571.9" cy="372.9" r="1.95" fill="#f6fbff" opacity="0.57"/>
<circle cx="444.5" cy="584.8" r="3.09" fill="#f6fbff" opacity="0.63"/>
<circle cx="199.6" cy="209.2" r="1.79" fill="#f6fbff" opacity="0.34"/>
<circle cx="702.6" cy="130.0" r="1.69" fill="#f6fbff" opacity="0.55"/>
<circle cx="152.4" cy="26.3" r="1.90" fill="#f6fbff" opacity="0.61"/>
<circle cx="802.8" cy="206.1" r="2.02" fill="#f6fbff" opacity="0.61"/>
<circle cx="1075.6" cy="264.6" r="2.98" fill="#f6fbff" opacity="0.31"/>
<circle cx="618.8" cy="1371.1" r="1.85" fill="#f6fbff" opacity="0.46"/>
<circle cx="1051.4" cy="64.0" r="1.21" fill="#f6fbff" opacity="0.70"/>
<circle cx="967.7" cy="906.5" r="0.94" fill="#f6fbff" opacity="0.39"/>
<circle cx="15.1" cy="1286.0" r="3.28" fill="#f6fbff" opacity="0.23"/>
<circle cx="642.4" cy="849.6" r="1.89" fill="#f6fbff" opacity="0.73"/>
<circle cx="87.3" cy="1625.4" r="1.01" fill="#f6fbff" opacity="0.40"/>
<circle cx="1028.5" cy="2061.8" r="1.95" fill="#f6fbff" opacity="0.51"/>
<circle cx="52.6" cy="1287.5" r="1.36" fill="#f6fbff" opacity="0.36"/>
<circle cx="967.5" cy="400.3" r="2.74" fill="#f6fbff" opacity="0.26"/>
<circle cx="22.0" cy="1240.2" r="0.96" fill="#f6fbff" opacity="0.35"/>
<circle cx="13.2" cy="1282.4" r="1.66" fill="#f6fbff" opacity="0.69"/>
<circle cx="205.7" cy="152.9" r="1.36" fill="#f6fbff" opacity="0.36"/>
<circle cx="366.3" cy="600.2" r="1.25" fill="#f6fbff" opacity="0.39"/>
<circle cx="620.8" cy="515.8" r="1.35" fill="#f6fbff" opacity="0.54"/>
<circle cx="338.3" cy="2197.5" r="0.96" fill="#f6fbff" opacity="0.45"/>
<circle cx="213.3" cy="35.2" r="0.83" fill="#f6fbff" opacity="0.26"/>
<circle cx="1078.3" cy="1792.4" r="0.80" fill="#f6fbff" opacity="0.43"/>
<circle cx="977.2" cy="298.9" r="1.01" fill="#f6fbff" opacity="0.57"/>
<circle cx="1063.6" cy="860.7" r="1.32" fill="#f6fbff" opacity="0.46"/>
<circle cx="216.8" cy="1323.5" r="1.21" fill="#f6fbff" opacity="0.31"/>
<circle cx="509.7" cy="1652.3" r="1.60" fill="#f6fbff" opacity="0.27"/>
<circle cx="989.1" cy="387.1" r="1.63" fill="#f6fbff" opacity="0.32"/>
<circle cx="986.6" cy="1569.8" r="1.07" fill="#f6fbff" opacity="0.33"/>
<circle cx="993.0" cy="141.9" r="2.98" fill="#f6fbff" opacity="0.72"/>
<circle cx="250.1" cy="2118.3" r="1.50" fill="#f6fbff" opacity="0.27"/>
<circle cx="1006.7" cy="1114.1" r="1.71" fill="#f6fbff" opacity="0.71"/>
<circle cx="1020.9" cy="815.9" r="0.97" fill="#f6fbff" opacity="0.53"/>
<circle cx="681.6" cy="237.4" r="2.69" fill="#f6fbff" opacity="0.59"/>
<circle cx="275.4" cy="21.8" r="1.55" fill="#f6fbff" opacity="0.74"/>
<circle cx="912.1" cy="2243.4" r="1.12" fill="#f6fbff" opacity="0.22"/>
<circle cx="1056.4" cy="1057.1" r="1.45" fill="#f6fbff" opacity="0.53"/>
<circle cx="1020.6" cy="763.5" r="0.86" fill="#f6fbff" opacity="0.57"/>
<circle cx="54.5" cy="1062.5" r="1.03" fill="#f6fbff" opacity="0.46"/>
<circle cx="1038.7" cy="215.7" r="1.65" fill="#f6fbff" opacity="0.43"/>
<circle cx="631.7" cy="218.7" r="1.82" fill="#f6fbff" opacity="0.58"/>
<circle cx="621.1" cy="85.9" r="1.34" fill="#f6fbff" opacity="0.65"/>
<circle cx="425.0" cy="1138.0" r="0.80" fill="#f6fbff" opacity="0.59"/>
<circle cx="756.4" cy="1028.0" r="0.86" fill="#f6fbff" opacity="0.39"/>
<circle cx="240.7" cy="1641.5" r="1.29" fill="#f6fbff" opacity="0.43"/>
<circle cx="102.6" cy="48.8" r="1.19" fill="#f6fbff" opacity="0.51"/>
<circle cx="1001.2" cy="696.9" r="1.73" fill="#f6fbff" opacity="0.58"/>
<circle cx="899.7" cy="127.8" r="2.96" fill="#f6fbff" opacity="0.67"/>
<circle cx="618.7" cy="2341.5" r="0.88" fill="#f6fbff" opacity="0.26"/>
<circle cx="1048.8" cy="1713.7" r="1.20" fill="#f6fbff" opacity="0.68"/>
<circle cx="875.0" cy="1.6" r="2.05" fill="#f6fbff" opacity="0.56"/>
<circle cx="841.2" cy="1151.3" r="1.49" fill="#f6fbff" opacity="0.63"/>
<circle cx="866.4" cy="201.0" r="0.85" fill="#f6fbff" opacity="0.52"/>
<circle cx="982.8" cy="971.9" r="1.92" fill="#f6fbff" opacity="0.71"/>
<circle cx="632.9" cy="147.2" r="3.35" fill="#f6fbff" opacity="0.63"/>
<circle cx="119.1" cy="2321.4" r="2.28" fill="#f6fbff" opacity="0.44"/>
<circle cx="613.0" cy="2034.8" r="1.29" fill="#f6fbff" opacity="0.73"/>
<circle cx="1048.0" cy="565.5" r="1.13" fill="#f6fbff" opacity="0.30"/>
<circle cx="972.0" cy="1829.3" r="1.84" fill="#f6fbff" opacity="0.28"/>
<circle cx="653.9" cy="516.0" r="2.32" fill="#f6fbff" opacity="0.28"/>
<circle cx="1046.0" cy="1185.0" r="1.29" fill="#f6fbff" opacity="0.70"/>
<circle cx="74.8" cy="1936.3" r="0.78" fill="#f6fbff" opacity="0.30"/>
<circle cx="832.3" cy="504.5" r="1.69" fill="#f6fbff" opacity="0.29"/>
<circle cx="446.9" cy="171.9" r="1.77" fill="#f6fbff" opacity="0.54"/>
<circle cx="903.1" cy="146.1" r="0.89" fill="#f6fbff" opacity="0.36"/>
<circle cx="60.3" cy="654.9" r="1.76" fill="#f6fbff" opacity="0.66"/>
<circle cx="62.0" cy="2380.1" r="1.10" fill="#f6fbff" opacity="0.51"/>
<circle cx="990.7" cy="957.8" r="1.30" fill="#f6fbff" opacity="0.43"/>
<circle cx="55.0" cy="586.0" r="1.79" fill="#f6fbff" opacity="0.24"/>
<circle cx="173.2" cy="1826.2" r="1.65" fill="#f6fbff" opacity="0.31"/>
<circle cx="775.0" cy="1204.7" r="0.97" fill="#f6fbff" opacity="0.66"/>
<circle cx="969.9" cy="875.0" r="1.71" fill="#f6fbff" opacity="0.55"/>
<circle cx="984.3" cy="1055.3" r="1.80" fill="#f6fbff" opacity="0.45"/>
<circle cx="1047.2" cy="455.6" r="1.54" fill="#f6fbff" opacity="0.27"/>
<circle cx="1077.2" cy="1974.0" r="1.26" fill="#f6fbff" opacity="0.60"/>
<circle cx="50.3" cy="935.7" r="1.36" fill="#f6fbff" opacity="0.23"/>
<circle cx="402.6" cy="2170.4" r="1.49" fill="#f6fbff" opacity="0.26"/>
<circle cx="351.1" cy="1942.2" r="1.06" fill="#f6fbff" opacity="0.59"/>
<circle cx="102.5" cy="223.3" r="0.88" fill="#f6fbff" opacity="0.38"/>
<circle cx="71.5" cy="333.8" r="1.46" fill="#f6fbff" opacity="0.42"/>
<circle cx="293.7" cy="54.0" r="1.06" fill="#f6fbff" opacity="0.60"/>
<circle cx="556.4" cy="916.6" r="1.27" fill="#f6fbff" opacity="0.40"/>
<circle cx="332.9" cy="577.5" r="1.77" fill="#f6fbff" opacity="0.49"/>
<circle cx="836.9" cy="203.4" r="1.30" fill="#f6fbff" opacity="0.43"/>
<circle cx="943.9" cy="2305.5" r="1.82" fill="#f6fbff" opacity="0.37"/>
<circle cx="970.6" cy="1425.9" r="1.56" fill="#f6fbff" opacity="0.37"/>
<circle cx="118.8" cy="695.8" r="0.84" fill="#f6fbff" opacity="0.40"/>
<circle cx="540.1" cy="626.7" r="1.54" fill="#f6fbff" opacity="0.24"/>
<circle cx="526.0" cy="199.5" r="1.40" fill="#f6fbff" opacity="0.55"/>
<circle cx="964.2" cy="540.4" r="1.79" fill="#f6fbff" opacity="0.59"/>
<circle cx="17.1" cy="1846.3" r="1.75" fill="#f6fbff" opacity="0.53"/>
<circle cx="1010.4" cy="1071.8" r="1.36" fill="#f6fbff" opacity="0.61"/>
<circle cx="1059.6" cy="1758.1" r="1.24" fill="#f6fbff" opacity="0.66"/>
<circle cx="1022.0" cy="422.8" r="1.22" fill="#f6fbff" opacity="0.53"/>
<circle cx="556.8" cy="14.2" r="1.65" fill="#f6fbff" opacity="0.39"/>
<circle cx="966.6" cy="487.8" r="3.11" fill="#f6fbff" opacity="0.69"/>
<circle cx="994.1" cy="708.7" r="1.63" fill="#f6fbff" opacity="0.59"/>
<circle cx="1047.8" cy="465.9" r="1.50" fill="#f6fbff" opacity="0.70"/>
<circle cx="524.0" cy="1922.1" r="3.31" fill="#f6fbff" opacity="0.51"/>
<circle cx="381.6" cy="43.0" r="0.99" fill="#f6fbff" opacity="0.61"/>
<circle cx="999.9" cy="522.9" r="1.85" fill="#f6fbff" opacity="0.62"/>
<circle cx="970.6" cy="833.2" r="1.73" fill="#f6fbff" opacity="0.39"/>
<circle cx="911.3" cy="555.4" r="1.43" fill="#f6fbff" opacity="0.28"/>
<circle cx="83.0" cy="1879.1" r="1.35" fill="#f6fbff" opacity="0.31"/>
<circle cx="71.1" cy="651.9" r="1.36" fill="#f6fbff" opacity="0.35"/></g>
  <g transform="translate(0 -10)">
    <ellipse cx="540" cy="768" rx="318" ry="318" fill="#051b19" opacity=".22" filter="url(#starGlow)"/>
    <g opacity="0.76" filter="url(#embossTeal)">
<circle cx="540" cy="746" r="382" fill="none" stroke="#c2f4ea" stroke-width="1.15" opacity=".46"/>
<circle cx="540" cy="746" r="314" fill="none" stroke="#68cfd8" stroke-width="1" opacity=".6" stroke-dasharray="2 12"/>
<circle cx="540" cy="746" r="246" fill="none" stroke="#c2f4ea" stroke-width="1.25" opacity=".64"/>
<circle cx="540" cy="746" r="182" fill="none" stroke="#68cfd8" stroke-width=".95" opacity=".68" stroke-dasharray="8 9"/>
<path d="M 538.74 654.01 Q 613.74 375.26 576.36 661.49" fill="none" stroke="#c2f4ea" stroke-width="1.25" opacity="0.8" stroke-linecap="round"/>
<path d="M 604.16 680.06 Q 854.30 535.99 625.47 711.96" fill="none" stroke="#c2f4ea" stroke-width="1.25" opacity="0.8" stroke-linecap="round"/>
<path d="M 631.99 744.74 Q 910.74 819.74 624.51 782.36" fill="none" stroke="#c2f4ea" stroke-width="1.25" opacity="0.8" stroke-linecap="round"/>
<path d="M 605.94 810.16 Q 750.01 1060.30 574.04 831.47" fill="none" stroke="#c2f4ea" stroke-width="1.25" opacity="0.8" stroke-linecap="round"/>
<path d="M 541.26 837.99 Q 466.26 1116.74 503.64 830.51" fill="none" stroke="#c2f4ea" stroke-width="1.25" opacity="0.8" stroke-linecap="round"/>
<path d="M 475.84 811.94 Q 225.70 956.01 454.53 780.04" fill="none" stroke="#c2f4ea" stroke-width="1.25" opacity="0.8" stroke-linecap="round"/>
<path d="M 448.01 747.26 Q 169.26 672.26 455.49 709.64" fill="none" stroke="#c2f4ea" stroke-width="1.25" opacity="0.8" stroke-linecap="round"/>
<path d="M 474.06 681.84 Q 329.99 431.70 505.96 660.53" fill="none" stroke="#c2f4ea" stroke-width="1.25" opacity="0.8" stroke-linecap="round"/>
<path d="M 547.82 628.26 Q 605.94 414.49 577.83 634.23" fill="none" stroke="#68cfd8" stroke-width="0.82" opacity="0.64" stroke-linecap="round"/>
<path d="M 592.29 640.22 Q 727.78 464.96 617.72 657.21" fill="none" stroke="#68cfd8" stroke-width="0.82" opacity="0.64" stroke-linecap="round"/>
<path d="M 628.79 668.28 Q 821.04 558.22 645.78 693.71" fill="none" stroke="#68cfd8" stroke-width="0.82" opacity="0.64" stroke-linecap="round"/>
<path d="M 651.77 708.17 Q 871.51 680.06 657.74 738.18" fill="none" stroke="#68cfd8" stroke-width="0.82" opacity="0.64" stroke-linecap="round"/>
<path d="M 657.74 753.82 Q 871.51 811.94 651.77 783.83" fill="none" stroke="#68cfd8" stroke-width="0.82" opacity="0.64" stroke-linecap="round"/>
<path d="M 645.78 798.29 Q 821.04 933.78 628.79 823.72" fill="none" stroke="#68cfd8" stroke-width="0.82" opacity="0.64" stroke-linecap="round"/>
<path d="M 617.72 834.79 Q 727.78 1027.04 592.29 851.78" fill="none" stroke="#68cfd8" stroke-width="0.82" opacity="0.64" stroke-linecap="round"/>
<path d="M 577.83 857.77 Q 605.94 1077.51 547.82 863.74" fill="none" stroke="#68cfd8" stroke-width="0.82" opacity="0.64" stroke-linecap="round"/>
<path d="M 532.18 863.74 Q 474.06 1077.51 502.17 857.77" fill="none" stroke="#68cfd8" stroke-width="0.82" opacity="0.64" stroke-linecap="round"/>
<path d="M 487.71 851.78 Q 352.22 1027.04 462.28 834.79" fill="none" stroke="#68cfd8" stroke-width="0.82" opacity="0.64" stroke-linecap="round"/>
<path d="M 451.21 823.72 Q 258.96 933.78 434.22 798.29" fill="none" stroke="#68cfd8" stroke-width="0.82" opacity="0.64" stroke-linecap="round"/>
<path d="M 428.23 783.83 Q 208.49 811.94 422.26 753.82" fill="none" stroke="#68cfd8" stroke-width="0.82" opacity="0.64" stroke-linecap="round"/>
<path d="M 422.26 738.18 Q 208.49 680.06 428.23 708.17" fill="none" stroke="#68cfd8" stroke-width="0.82" opacity="0.64" stroke-linecap="round"/>
<path d="M 434.22 693.71 Q 258.96 558.22 451.21 668.28" fill="none" stroke="#68cfd8" stroke-width="0.82" opacity="0.64" stroke-linecap="round"/>
<path d="M 462.28 657.21 Q 352.22 464.96 487.71 640.22" fill="none" stroke="#68cfd8" stroke-width="0.82" opacity="0.64" stroke-linecap="round"/>
<path d="M 502.17 634.23 Q 474.06 414.49 532.18 628.26" fill="none" stroke="#68cfd8" stroke-width="0.82" opacity="0.64" stroke-linecap="round"/>
<path d="M 559.27 581.12 Q 616.48 361.53 585.29 586.30" fill="none" stroke="#c2f4ea" stroke-width="0.62" opacity="0.5" stroke-linecap="round"/>
<path d="M 601.29 591.73 Q 713.38 394.43 625.08 603.46" fill="none" stroke="#c2f4ea" stroke-width="0.62" opacity="0.5" stroke-linecap="round"/>
<path d="M 639.13 612.85 Q 798.46 451.28 659.08 630.34" fill="none" stroke="#c2f4ea" stroke-width="0.62" opacity="0.5" stroke-linecap="round"/>
<path d="M 670.21 643.04 Q 865.94 528.22 684.95 665.10" fill="none" stroke="#c2f4ea" stroke-width="0.62" opacity="0.5" stroke-linecap="round"/>
<path d="M 692.42 680.25 Q 911.20 620.00 700.95 705.37" fill="none" stroke="#c2f4ea" stroke-width="0.62" opacity="0.5" stroke-linecap="round"/>
<path d="M 704.25 721.94 Q 931.16 720.36 705.98 748.42" fill="none" stroke="#c2f4ea" stroke-width="0.62" opacity="0.5" stroke-linecap="round"/>
<path d="M 704.88 765.27 Q 924.47 822.48 699.70 791.29" fill="none" stroke="#c2f4ea" stroke-width="0.62" opacity="0.5" stroke-linecap="round"/>
<path d="M 694.27 807.29 Q 891.57 919.38 682.54 831.08" fill="none" stroke="#c2f4ea" stroke-width="0.62" opacity="0.5" stroke-linecap="round"/>
<path d="M 673.15 845.13 Q 834.72 1004.46 655.66 865.08" fill="none" stroke="#c2f4ea" stroke-width="0.62" opacity="0.5" stroke-linecap="round"/>
<path d="M 642.96 876.21 Q 757.78 1071.94 620.90 890.95" fill="none" stroke="#c2f4ea" stroke-width="0.62" opacity="0.5" stroke-linecap="round"/>
<path d="M 605.75 898.42 Q 666.00 1117.20 580.63 906.95" fill="none" stroke="#c2f4ea" stroke-width="0.62" opacity="0.5" stroke-linecap="round"/>
<path d="M 564.06 910.25 Q 565.64 1137.16 537.58 911.98" fill="none" stroke="#c2f4ea" stroke-width="0.62" opacity="0.5" stroke-linecap="round"/>
<path d="M 520.73 910.88 Q 463.52 1130.47 494.71 905.70" fill="none" stroke="#c2f4ea" stroke-width="0.62" opacity="0.5" stroke-linecap="round"/>
<path d="M 478.71 900.27 Q 366.62 1097.57 454.92 888.54" fill="none" stroke="#c2f4ea" stroke-width="0.62" opacity="0.5" stroke-linecap="round"/>
<path d="M 440.87 879.15 Q 281.54 1040.72 420.92 861.66" fill="none" stroke="#c2f4ea" stroke-width="0.62" opacity="0.5" stroke-linecap="round"/>
<path d="M 409.79 848.96 Q 214.06 963.78 395.05 826.90" fill="none" stroke="#c2f4ea" stroke-width="0.62" opacity="0.5" stroke-linecap="round"/>
<path d="M 387.58 811.75 Q 168.80 872.00 379.05 786.63" fill="none" stroke="#c2f4ea" stroke-width="0.62" opacity="0.5" stroke-linecap="round"/>
<path d="M 375.75 770.06 Q 148.84 771.64 374.02 743.58" fill="none" stroke="#c2f4ea" stroke-width="0.62" opacity="0.5" stroke-linecap="round"/>
<path d="M 375.12 726.73 Q 155.53 669.52 380.30 700.71" fill="none" stroke="#c2f4ea" stroke-width="0.62" opacity="0.5" stroke-linecap="round"/>
<path d="M 385.73 684.71 Q 188.43 572.62 397.46 660.92" fill="none" stroke="#c2f4ea" stroke-width="0.62" opacity="0.5" stroke-linecap="round"/>
<path d="M 406.85 646.87 Q 245.28 487.54 424.34 626.92" fill="none" stroke="#c2f4ea" stroke-width="0.62" opacity="0.5" stroke-linecap="round"/>
<path d="M 437.04 615.79 Q 322.22 420.06 459.10 601.05" fill="none" stroke="#c2f4ea" stroke-width="0.62" opacity="0.5" stroke-linecap="round"/>
<path d="M 474.25 593.58 Q 414.00 374.80 499.37 585.05" fill="none" stroke="#c2f4ea" stroke-width="0.62" opacity="0.5" stroke-linecap="round"/>
<path d="M 515.94 581.75 Q 514.36 354.84 542.42 580.02" fill="none" stroke="#c2f4ea" stroke-width="0.62" opacity="0.5" stroke-linecap="round"/>
<path d="M 572.40 518.29 Q 622.33 332.11 597.20 523.23" fill="none" stroke="#68cfd8" stroke-width="0.48" opacity="0.42" stroke-linecap="round"/>
<path d="M 616.20 528.99 Q 701.49 356.12 639.57 538.67" fill="none" stroke="#68cfd8" stroke-width="0.48" opacity="0.42" stroke-linecap="round"/>
<path d="M 657.08 548.03 Q 774.45 395.12 678.10 562.08" fill="none" stroke="#68cfd8" stroke-width="0.48" opacity="0.42" stroke-linecap="round"/>
<path d="M 693.45 574.67 Q 838.40 447.60 711.33 592.55" fill="none" stroke="#68cfd8" stroke-width="0.48" opacity="0.42" stroke-linecap="round"/>
<path d="M 723.92 607.90 Q 890.88 511.55 737.97 628.92" fill="none" stroke="#68cfd8" stroke-width="0.48" opacity="0.42" stroke-linecap="round"/>
<path d="M 747.33 646.43 Q 929.88 584.51 757.01 669.80" fill="none" stroke="#68cfd8" stroke-width="0.48" opacity="0.42" stroke-linecap="round"/>
<path d="M 762.77 688.80 Q 953.89 663.67 767.71 713.60" fill="none" stroke="#68cfd8" stroke-width="0.48" opacity="0.42" stroke-linecap="round"/>
<path d="M 769.65 733.36 Q 962.00 746.00 769.65 758.64" fill="none" stroke="#68cfd8" stroke-width="0.48" opacity="0.42" stroke-linecap="round"/>
<path d="M 767.71 778.40 Q 953.89 828.33 762.77 803.20" fill="none" stroke="#68cfd8" stroke-width="0.48" opacity="0.42" stroke-linecap="round"/>
<path d="M 757.01 822.20 Q 929.88 907.49 747.33 845.57" fill="none" stroke="#68cfd8" stroke-width="0.48" opacity="0.42" stroke-linecap="round"/>
<path d="M 737.97 863.08 Q 890.88 980.45 723.92 884.10" fill="none" stroke="#68cfd8" stroke-width="0.48" opacity="0.42" stroke-linecap="round"/>
<path d="M 711.33 899.45 Q 838.40 1044.40 693.45 917.33" fill="none" stroke="#68cfd8" stroke-width="0.48" opacity="0.42" stroke-linecap="round"/>
<path d="M 678.10 929.92 Q 774.45 1096.88 657.08 943.97" fill="none" stroke="#68cfd8" stroke-width="0.48" opacity="0.42" stroke-linecap="round"/>
<path d="M 639.57 953.33 Q 701.49 1135.88 616.20 963.01" fill="none" stroke="#68cfd8" stroke-width="0.48" opacity="0.42" stroke-linecap="round"/>
<path d="M 597.20 968.77 Q 622.33 1159.89 572.40 973.71" fill="none" stroke="#68cfd8" stroke-width="0.48" opacity="0.42" stroke-linecap="round"/>
<path d="M 552.64 975.65 Q 540.00 1168.00 527.36 975.65" fill="none" stroke="#68cfd8" stroke-width="0.48" opacity="0.42" stroke-linecap="round"/>
<path d="M 507.60 973.71 Q 457.67 1159.89 482.80 968.77" fill="none" stroke="#68cfd8" stroke-width="0.48" opacity="0.42" stroke-linecap="round"/>
<path d="M 463.80 963.01 Q 378.51 1135.88 440.43 953.33" fill="none" stroke="#68cfd8" stroke-width="0.48" opacity="0.42" stroke-linecap="round"/>
<path d="M 422.92 943.97 Q 305.55 1096.88 401.90 929.92" fill="none" stroke="#68cfd8" stroke-width="0.48" opacity="0.42" stroke-linecap="round"/>
<path d="M 386.55 917.33 Q 241.60 1044.40 368.67 899.45" fill="none" stroke="#68cfd8" stroke-width="0.48" opacity="0.42" stroke-linecap="round"/>
<path d="M 356.08 884.10 Q 189.12 980.45 342.03 863.08" fill="none" stroke="#68cfd8" stroke-width="0.48" opacity="0.42" stroke-linecap="round"/>
<path d="M 332.67 845.57 Q 150.12 907.49 322.99 822.20" fill="none" stroke="#68cfd8" stroke-width="0.48" opacity="0.42" stroke-linecap="round"/>
<path d="M 317.23 803.20 Q 126.11 828.33 312.29 778.40" fill="none" stroke="#68cfd8" stroke-width="0.48" opacity="0.42" stroke-linecap="round"/>
<path d="M 310.35 758.64 Q 118.00 746.00 310.35 733.36" fill="none" stroke="#68cfd8" stroke-width="0.48" opacity="0.42" stroke-linecap="round"/>
<path d="M 312.29 713.60 Q 126.11 663.67 317.23 688.80" fill="none" stroke="#68cfd8" stroke-width="0.48" opacity="0.42" stroke-linecap="round"/>
<path d="M 322.99 669.80 Q 150.12 584.51 332.67 646.43" fill="none" stroke="#68cfd8" stroke-width="0.48" opacity="0.42" stroke-linecap="round"/>
<path d="M 342.03 628.92 Q 189.12 511.55 356.08 607.90" fill="none" stroke="#68cfd8" stroke-width="0.48" opacity="0.42" stroke-linecap="round"/>
<path d="M 368.67 592.55 Q 241.60 447.60 386.55 574.67" fill="none" stroke="#68cfd8" stroke-width="0.48" opacity="0.42" stroke-linecap="round"/>
<path d="M 401.90 562.08 Q 305.55 395.12 422.92 548.03" fill="none" stroke="#68cfd8" stroke-width="0.48" opacity="0.42" stroke-linecap="round"/>
<path d="M 440.43 538.67 Q 378.51 356.12 463.80 528.99" fill="none" stroke="#68cfd8" stroke-width="0.48" opacity="0.42" stroke-linecap="round"/>
<path d="M 482.80 523.23 Q 457.67 332.11 507.60 518.29" fill="none" stroke="#68cfd8" stroke-width="0.48" opacity="0.42" stroke-linecap="round"/>
<path d="M 527.36 516.35 Q 540.00 324.00 552.64 516.35" fill="none" stroke="#68cfd8" stroke-width="0.48" opacity="0.42" stroke-linecap="round"/>
<line x1="568.03" y1="461.38" x2="582.15" y2="318.07" stroke="#c2f4ea" stroke-width=".45" opacity=".34"/>
<line x1="595.80" y1="465.50" x2="627.40" y2="306.61" stroke="#68cfd8" stroke-width=".45" opacity=".34"/>
<line x1="623.02" y1="472.32" x2="664.82" y2="334.52" stroke="#c2f4ea" stroke-width=".45" opacity=".34"/>
<line x1="649.45" y1="481.77" x2="711.44" y2="332.10" stroke="#68cfd8" stroke-width=".45" opacity=".34"/>
<line x1="674.82" y1="493.77" x2="742.70" y2="366.77" stroke="#c2f4ea" stroke-width=".45" opacity=".34"/>
<line x1="698.89" y1="508.20" x2="788.90" y2="373.50" stroke="#68cfd8" stroke-width=".45" opacity=".34"/>
<line x1="721.44" y1="524.92" x2="812.79" y2="413.61" stroke="#c2f4ea" stroke-width=".45" opacity=".34"/>
<line x1="742.23" y1="543.77" x2="856.78" y2="429.22" stroke="#68cfd8" stroke-width=".45" opacity=".34"/>
<line x1="761.08" y1="564.56" x2="872.39" y2="473.21" stroke="#c2f4ea" stroke-width=".45" opacity=".34"/>
<line x1="777.80" y1="587.11" x2="912.50" y2="497.10" stroke="#68cfd8" stroke-width=".45" opacity=".34"/>
<line x1="792.23" y1="611.18" x2="919.23" y2="543.30" stroke="#c2f4ea" stroke-width=".45" opacity=".34"/>
<line x1="804.23" y1="636.55" x2="953.90" y2="574.56" stroke="#68cfd8" stroke-width=".45" opacity=".34"/>
<line x1="813.68" y1="662.98" x2="951.48" y2="621.18" stroke="#c2f4ea" stroke-width=".45" opacity=".34"/>
<line x1="820.50" y1="690.20" x2="979.39" y2="658.60" stroke="#68cfd8" stroke-width=".45" opacity=".34"/>
<line x1="824.62" y1="717.97" x2="967.93" y2="703.85" stroke="#c2f4ea" stroke-width=".45" opacity=".34"/>
<line x1="826.00" y1="746.00" x2="988.00" y2="746.00" stroke="#68cfd8" stroke-width=".45" opacity=".34"/>
<line x1="824.62" y1="774.03" x2="967.93" y2="788.15" stroke="#c2f4ea" stroke-width=".45" opacity=".34"/>
<line x1="820.50" y1="801.80" x2="979.39" y2="833.40" stroke="#68cfd8" stroke-width=".45" opacity=".34"/>
<line x1="813.68" y1="829.02" x2="951.48" y2="870.82" stroke="#c2f4ea" stroke-width=".45" opacity=".34"/>
<line x1="804.23" y1="855.45" x2="953.90" y2="917.44" stroke="#68cfd8" stroke-width=".45" opacity=".34"/>
<line x1="792.23" y1="880.82" x2="919.23" y2="948.70" stroke="#c2f4ea" stroke-width=".45" opacity=".34"/>
<line x1="777.80" y1="904.89" x2="912.50" y2="994.90" stroke="#68cfd8" stroke-width=".45" opacity=".34"/>
<line x1="761.08" y1="927.44" x2="872.39" y2="1018.79" stroke="#c2f4ea" stroke-width=".45" opacity=".34"/>
<line x1="742.23" y1="948.23" x2="856.78" y2="1062.78" stroke="#68cfd8" stroke-width=".45" opacity=".34"/>
<line x1="721.44" y1="967.08" x2="812.79" y2="1078.39" stroke="#c2f4ea" stroke-width=".45" opacity=".34"/>
<line x1="698.89" y1="983.80" x2="788.90" y2="1118.50" stroke="#68cfd8" stroke-width=".45" opacity=".34"/>
<line x1="674.82" y1="998.23" x2="742.70" y2="1125.23" stroke="#c2f4ea" stroke-width=".45" opacity=".34"/>
<line x1="649.45" y1="1010.23" x2="711.44" y2="1159.90" stroke="#68cfd8" stroke-width=".45" opacity=".34"/>
<line x1="623.02" y1="1019.68" x2="664.82" y2="1157.48" stroke="#c2f4ea" stroke-width=".45" opacity=".34"/>
<line x1="595.80" y1="1026.50" x2="627.40" y2="1185.39" stroke="#68cfd8" stroke-width=".45" opacity=".34"/>
<line x1="568.03" y1="1030.62" x2="582.15" y2="1173.93" stroke="#c2f4ea" stroke-width=".45" opacity=".34"/>
<line x1="540.00" y1="1032.00" x2="540.00" y2="1194.00" stroke="#68cfd8" stroke-width=".45" opacity=".34"/>
<line x1="511.97" y1="1030.62" x2="497.85" y2="1173.93" stroke="#c2f4ea" stroke-width=".45" opacity=".34"/>
<line x1="484.20" y1="1026.50" x2="452.60" y2="1185.39" stroke="#68cfd8" stroke-width=".45" opacity=".34"/>
<line x1="456.98" y1="1019.68" x2="415.18" y2="1157.48" stroke="#c2f4ea" stroke-width=".45" opacity=".34"/>
<line x1="430.55" y1="1010.23" x2="368.56" y2="1159.90" stroke="#68cfd8" stroke-width=".45" opacity=".34"/>
<line x1="405.18" y1="998.23" x2="337.30" y2="1125.23" stroke="#c2f4ea" stroke-width=".45" opacity=".34"/>
<line x1="381.11" y1="983.80" x2="291.10" y2="1118.50" stroke="#68cfd8" stroke-width=".45" opacity=".34"/>
<line x1="358.56" y1="967.08" x2="267.21" y2="1078.39" stroke="#c2f4ea" stroke-width=".45" opacity=".34"/>
<line x1="337.77" y1="948.23" x2="223.22" y2="1062.78" stroke="#68cfd8" stroke-width=".45" opacity=".34"/>
<line x1="318.92" y1="927.44" x2="207.61" y2="1018.79" stroke="#c2f4ea" stroke-width=".45" opacity=".34"/>
<line x1="302.20" y1="904.89" x2="167.50" y2="994.90" stroke="#68cfd8" stroke-width=".45" opacity=".34"/>
<line x1="287.77" y1="880.82" x2="160.77" y2="948.70" stroke="#c2f4ea" stroke-width=".45" opacity=".34"/>
<line x1="275.77" y1="855.45" x2="126.10" y2="917.44" stroke="#68cfd8" stroke-width=".45" opacity=".34"/>
<line x1="266.32" y1="829.02" x2="128.52" y2="870.82" stroke="#c2f4ea" stroke-width=".45" opacity=".34"/>
<line x1="259.50" y1="801.80" x2="100.61" y2="833.40" stroke="#68cfd8" stroke-width=".45" opacity=".34"/>
<line x1="255.38" y1="774.03" x2="112.07" y2="788.15" stroke="#c2f4ea" stroke-width=".45" opacity=".34"/>
<line x1="254.00" y1="746.00" x2="92.00" y2="746.00" stroke="#68cfd8" stroke-width=".45" opacity=".34"/>
<line x1="255.38" y1="717.97" x2="112.07" y2="703.85" stroke="#c2f4ea" stroke-width=".45" opacity=".34"/>
<line x1="259.50" y1="690.20" x2="100.61" y2="658.60" stroke="#68cfd8" stroke-width=".45" opacity=".34"/>
<line x1="266.32" y1="662.98" x2="128.52" y2="621.18" stroke="#c2f4ea" stroke-width=".45" opacity=".34"/>
<line x1="275.77" y1="636.55" x2="126.10" y2="574.56" stroke="#68cfd8" stroke-width=".45" opacity=".34"/>
<line x1="287.77" y1="611.18" x2="160.77" y2="543.30" stroke="#c2f4ea" stroke-width=".45" opacity=".34"/>
<line x1="302.20" y1="587.11" x2="167.50" y2="497.10" stroke="#68cfd8" stroke-width=".45" opacity=".34"/>
<line x1="318.92" y1="564.56" x2="207.61" y2="473.21" stroke="#c2f4ea" stroke-width=".45" opacity=".34"/>
<line x1="337.77" y1="543.77" x2="223.22" y2="429.22" stroke="#68cfd8" stroke-width=".45" opacity=".34"/>
<line x1="358.56" y1="524.92" x2="267.21" y2="413.61" stroke="#c2f4ea" stroke-width=".45" opacity=".34"/>
<line x1="381.11" y1="508.20" x2="291.10" y2="373.50" stroke="#68cfd8" stroke-width=".45" opacity=".34"/>
<line x1="405.18" y1="493.77" x2="337.30" y2="366.77" stroke="#c2f4ea" stroke-width=".45" opacity=".34"/>
<line x1="430.55" y1="481.77" x2="368.56" y2="332.10" stroke="#68cfd8" stroke-width=".45" opacity=".34"/>
<line x1="456.98" y1="472.32" x2="415.18" y2="334.52" stroke="#c2f4ea" stroke-width=".45" opacity=".34"/>
<line x1="484.20" y1="465.50" x2="452.60" y2="306.61" stroke="#68cfd8" stroke-width=".45" opacity=".34"/>
<line x1="511.97" y1="461.38" x2="497.85" y2="318.07" stroke="#c2f4ea" stroke-width=".45" opacity=".34"/>
<line x1="540.00" y1="460.00" x2="540.00" y2="298.00" stroke="#68cfd8" stroke-width=".45" opacity=".34"/>
<polygon points="594.24,473.34 694.45,514.85 771.15,591.55 812.66,691.76 812.66,800.24 771.15,900.45 694.45,977.15 594.24,1018.66 485.76,1018.66 385.55,977.15 308.85,900.45 267.34,800.24 267.34,691.76 308.85,591.55 385.55,514.85 485.76,473.34" fill="none" stroke="#68cfd8" stroke-width=".65" opacity=".38"/>
<polygon points="637.97,509.49 721.02,564.98 776.51,648.03 796.00,746.00 776.51,843.97 721.02,927.02 637.97,982.51 540.00,1002.00 442.03,982.51 358.98,927.02 303.49,843.97 284.00,746.00 303.49,648.03 358.98,564.98 442.03,509.49 540.00,490.00" fill="none" stroke="#68cfd8" stroke-width=".45" opacity=".32"/>
<polygon points="604.38,422.34 723.34,471.62 814.38,562.66 863.66,681.62 863.66,810.38 814.38,929.34 723.34,1020.38 604.38,1069.66 475.62,1069.66 356.66,1020.38 265.62,929.34 216.34,810.38 216.34,681.62 265.62,562.66 356.66,471.62 475.62,422.34" fill="none" stroke="#68cfd8" stroke-width=".65" opacity=".38"/>
<polygon points="657.87,461.45 757.79,528.21 824.55,628.13 848.00,746.00 824.55,863.87 757.79,963.79 657.87,1030.55 540.00,1054.00 422.13,1030.55 322.21,963.79 255.45,863.87 232.00,746.00 255.45,628.13 322.21,528.21 422.13,461.45 540.00,438.00" fill="none" stroke="#68cfd8" stroke-width=".45" opacity=".32"/>
<polygon points="615.30,367.42 754.45,425.05 860.95,531.55 918.58,670.70 918.58,821.30 860.95,960.45 754.45,1066.95 615.30,1124.58 464.70,1124.58 325.55,1066.95 219.05,960.45 161.42,821.30 161.42,670.70 219.05,531.55 325.55,425.05 464.70,367.42" fill="none" stroke="#68cfd8" stroke-width=".65" opacity=".38"/>
<polygon points="679.30,409.71 797.39,488.61 876.29,606.70 904.00,746.00 876.29,885.30 797.39,1003.39 679.30,1082.29 540.00,1110.00 400.70,1082.29 282.61,1003.39 203.71,885.30 176.00,746.00 203.71,606.70 282.61,488.61 400.70,409.71 540.00,382.00" fill="none" stroke="#68cfd8" stroke-width=".45" opacity=".32"/>
<polygon points="625.45,316.42 707.62,341.34 783.34,381.82 849.71,436.29 904.18,502.66 944.66,578.38 969.58,660.55 978.00,746.00 969.58,831.45 944.66,913.62 904.18,989.34 849.71,1055.71 783.34,1110.18 707.62,1150.66 625.45,1175.58 540.00,1184.00 454.55,1175.58 372.38,1150.66 296.66,1110.18 230.29,1055.71 175.82,989.34 135.34,913.62 110.42,831.45 102.00,746.00 110.42,660.55 135.34,578.38 175.82,502.66 230.29,436.29 296.66,381.82 372.38,341.34 454.55,316.42 540.00,308.00" fill="none" stroke="#68cfd8" stroke-width=".65" opacity=".38"/>
<polygon points="660.76,347.91 736.10,379.12 803.91,424.43 861.57,482.09 906.88,549.90 938.09,625.24 954.00,705.22 954.00,786.78 938.09,866.76 906.88,942.10 861.57,1009.91 803.91,1067.57 736.10,1112.88 660.76,1144.09 580.78,1160.00 499.22,1160.00 419.24,1144.09 343.90,1112.88 276.09,1067.57 218.43,1009.91 173.12,942.10 141.91,866.76 126.00,786.78 126.00,705.22 141.91,625.24 173.12,549.90 218.43,482.09 276.09,424.43 343.90,379.12 419.24,347.91 499.22,332.00 580.78,332.00" fill="none" stroke="#68cfd8" stroke-width=".45" opacity=".32"/>
</g>
<g filter="url(#goldPress)">
<circle cx="540" cy="746" r="124" fill="url(#centerVoid)" stroke="url(#goldStroke)" stroke-width="9"/>
<circle cx="540" cy="746" r="104" fill="none" stroke="#f3d48a" stroke-width="1.4" opacity=".72"/>
<circle cx="540" cy="746" r="139" fill="none" stroke="#9a7331" stroke-width="1" opacity=".62"/>
<path d="M 545.46 718.54 L 578.92 667.08 L 534.24 658.19 Z" fill="url(#triGold)" opacity="0.38" stroke="#d9b25b" stroke-width=".7"/>
<path d="M 558.46 724.95 L 613.17 697.11 L 578.92 667.08 Z" fill="url(#triGold)" opacity="0.45" stroke="#d9b25b" stroke-width=".7"/>
<path d="M 566.51 737.00 L 627.81 740.24 L 613.17 697.11 Z" fill="url(#triGold)" opacity="0.52" stroke="#d9b25b" stroke-width=".7"/>
<path d="M 567.46 751.46 L 618.92 784.92 L 627.81 740.24 Z" fill="url(#triGold)" opacity="0.38" stroke="#d9b25b" stroke-width=".7"/>
<path d="M 561.05 764.46 L 588.89 819.17 L 618.92 784.92 Z" fill="url(#triGold)" opacity="0.45" stroke="#d9b25b" stroke-width=".7"/>
<path d="M 549.00 772.51 L 545.76 833.81 L 588.89 819.17 Z" fill="url(#triGold)" opacity="0.52" stroke="#d9b25b" stroke-width=".7"/>
<path d="M 534.54 773.46 L 501.08 824.92 L 545.76 833.81 Z" fill="url(#triGold)" opacity="0.38" stroke="#d9b25b" stroke-width=".7"/>
<path d="M 521.54 767.05 L 466.83 794.89 L 501.08 824.92 Z" fill="url(#triGold)" opacity="0.45" stroke="#d9b25b" stroke-width=".7"/>
<path d="M 513.49 755.00 L 452.19 751.76 L 466.83 794.89 Z" fill="url(#triGold)" opacity="0.52" stroke="#d9b25b" stroke-width=".7"/>
<path d="M 512.54 740.54 L 461.08 707.08 L 452.19 751.76 Z" fill="url(#triGold)" opacity="0.38" stroke="#d9b25b" stroke-width=".7"/>
<path d="M 518.95 727.54 L 491.11 672.83 L 461.08 707.08 Z" fill="url(#triGold)" opacity="0.45" stroke="#d9b25b" stroke-width=".7"/>
<path d="M 531.00 719.49 L 534.24 658.19 L 491.11 672.83 Z" fill="url(#triGold)" opacity="0.52" stroke="#d9b25b" stroke-width=".7"/>
<circle cx="540" cy="746" r="36" fill="#173d35" opacity=".72"/>
<circle cx="540" cy="746" r="31" fill="none" stroke="#edcc80" stroke-width="1" opacity=".52"/>
</g>
  </g>
  <path d="M0 1350 C260 1430 834 1374 1080 1460 L1080 2400 L0 2400 Z" fill="#061f1d" opacity="0.54"/>
  <rect x="64" y="1760" width="952" height="1" fill="#acdcd8" opacity=".045"/>
  <circle cx="540" cy="736" r="476" fill="none" stroke="#b5fffa" stroke-opacity=".035" stroke-width="1"/>
</svg>